<?xml version="1.0" encoding="utf-8" standalone="no"?>
<!DOCTYPE svg PUBLIC "-//W3C//DTD SVG 1.1//EN"
  "http://www.w3.org/Graphics/SVG/1.1/DTD/svg11.dtd">
<svg xmlns:xlink="http://www.w3.org/1999/xlink" width="840.805187pt" height="321.286949pt" viewBox="0 0 840.805187 321.286949" xmlns="http://www.w3.org/2000/svg" version="1.1">
 <metadata>
  <rdf:RDF xmlns:dc="http://purl.org/dc/elements/1.1/" xmlns:cc="http://creativecommons.org/ns#" xmlns:rdf="http://www.w3.org/1999/02/22-rdf-syntax-ns#">
   <cc:Work>
    <dc:type rdf:resource="http://purl.org/dc/dcmitype/StillImage"/>
    <dc:date>2023-09-11T17:42:11.338067</dc:date>
    <dc:format>image/svg+xml</dc:format>
    <dc:creator>
     <cc:Agent>
      <dc:title>Matplotlib v3.7.2, https://matplotlib.org/</dc:title>
     </cc:Agent>
    </dc:creator>
   </cc:Work>
  </rdf:RDF>
 </metadata>
 <defs>
  <style type="text/css">*{stroke-linejoin: round; stroke-linecap: butt}</style>
 </defs>
 <g id="figure_1">
  <g id="patch_1">
   <path d="M 0 321.286949 
L 840.805187 321.286949 
L 840.805187 0 
L 0 0 
z
" style="fill: #ffffff"/>
  </g>
  <g id="axes_1">
   <g id="patch_2">
    <path d="M 126.691931 141.158791 
C 109.495351 141.158791 92.683565 146.289132 78.416982 155.890536 
C 64.150399 165.49194 53.067482 179.134722 46.592448 195.065707 
C 40.117415 210.996692 38.540037 228.502932 42.063018 245.334776 
C 45.585999 262.166619 54.051676 277.570802 66.372162 289.5678 
L 91.505399 263.756868 
C 84.318449 256.758619 79.380137 247.772845 77.325065 237.95427 
C 75.269993 228.135695 76.19013 217.923721 79.967233 208.630647 
C 83.744335 199.337572 90.209371 191.379283 98.531544 185.778464 
C 106.853717 180.177645 116.660593 177.184946 126.691931 177.184946 
z
" style="fill: #0c5da5; opacity: 0.8; stroke: #ffffff; stroke-linejoin: miter"/>
   </g>
   <g id="patch_3">
    <path d="M 66.372162 289.5678 
C 76.523854 299.452947 88.951555 306.692719 102.557816 310.647795 
C 116.164077 314.602871 130.536241 315.1533 144.405148 312.250474 
C 158.274054 309.347649 171.219081 303.079608 182.097095 293.999862 
C 192.975108 284.920116 201.456194 273.304039 206.791416 260.17741 
C 212.126638 247.050782 214.154186 232.811712 212.695014 218.717607 
C 211.235842 204.623503 206.334205 191.101816 198.42295 179.346604 
C 190.511695 167.591392 179.830759 157.959172 167.32334 151.300534 
C 154.815922 144.641897 140.861352 141.158789 126.691914 141.158791 
L 126.691921 177.184946 
C 134.957426 177.184944 143.097592 179.216758 150.393586 183.100963 
C 157.68958 186.985168 163.920127 192.603963 168.535025 199.46117 
C 173.149924 206.318377 176.009212 214.206028 176.860396 222.427589 
C 177.71158 230.64915 176.528843 238.955274 173.416631 246.612474 
C 170.304418 254.269674 165.357117 261.045718 159.01161 266.342237 
C 152.666102 271.638756 145.114836 275.295113 137.024641 276.988428 
C 128.934445 278.681743 120.550683 278.360659 112.613697 276.053532 
C 104.676712 273.746404 97.427219 269.523203 91.505399 263.756868 
z
" style="fill: #00b945; opacity: 0.8; stroke: #ffffff; stroke-linejoin: miter"/>
   </g>
   <g id="text_1">
    <!-- casual -->
    <g transform="translate(3.6 195.173403) scale(0.14 -0.14)">
     <defs>
      <path id="TimesNewRomanPSMT-63" d="M 2631 1088 
Q 2516 522 2178 217 
Q 1841 -88 1431 -88 
Q 944 -88 581 321 
Q 219 731 219 1428 
Q 219 2103 620 2525 
Q 1022 2947 1584 2947 
Q 2006 2947 2278 2723 
Q 2550 2500 2550 2259 
Q 2550 2141 2473 2067 
Q 2397 1994 2259 1994 
Q 2075 1994 1981 2113 
Q 1928 2178 1911 2362 
Q 1894 2547 1784 2644 
Q 1675 2738 1481 2738 
Q 1169 2738 978 2506 
Q 725 2200 725 1697 
Q 725 1184 976 792 
Q 1228 400 1656 400 
Q 1963 400 2206 609 
Q 2378 753 2541 1131 
L 2631 1088 
z
" transform="scale(0.015625)"/>
      <path id="TimesNewRomanPSMT-61" d="M 1822 413 
Q 1381 72 1269 19 
Q 1100 -59 909 -59 
Q 613 -59 420 144 
Q 228 347 228 678 
Q 228 888 322 1041 
Q 450 1253 767 1440 
Q 1084 1628 1822 1897 
L 1822 2009 
Q 1822 2438 1686 2597 
Q 1550 2756 1291 2756 
Q 1094 2756 978 2650 
Q 859 2544 859 2406 
L 866 2225 
Q 866 2081 792 2003 
Q 719 1925 600 1925 
Q 484 1925 411 2006 
Q 338 2088 338 2228 
Q 338 2497 613 2722 
Q 888 2947 1384 2947 
Q 1766 2947 2009 2819 
Q 2194 2722 2281 2516 
Q 2338 2381 2338 1966 
L 2338 994 
Q 2338 584 2353 492 
Q 2369 400 2405 369 
Q 2441 338 2488 338 
Q 2538 338 2575 359 
Q 2641 400 2828 588 
L 2828 413 
Q 2478 -56 2159 -56 
Q 2006 -56 1915 50 
Q 1825 156 1822 413 
z
M 1822 616 
L 1822 1706 
Q 1350 1519 1213 1441 
Q 966 1303 859 1153 
Q 753 1003 753 825 
Q 753 600 887 451 
Q 1022 303 1197 303 
Q 1434 303 1822 616 
z
" transform="scale(0.015625)"/>
      <path id="TimesNewRomanPSMT-73" d="M 2050 2947 
L 2050 1972 
L 1947 1972 
Q 1828 2431 1642 2597 
Q 1456 2763 1169 2763 
Q 950 2763 815 2647 
Q 681 2531 681 2391 
Q 681 2216 781 2091 
Q 878 1963 1175 1819 
L 1631 1597 
Q 2266 1288 2266 781 
Q 2266 391 1970 151 
Q 1675 -88 1309 -88 
Q 1047 -88 709 6 
Q 606 38 541 38 
Q 469 38 428 -44 
L 325 -44 
L 325 978 
L 428 978 
Q 516 541 762 319 
Q 1009 97 1316 97 
Q 1531 97 1667 223 
Q 1803 350 1803 528 
Q 1803 744 1651 891 
Q 1500 1038 1047 1263 
Q 594 1488 453 1669 
Q 313 1847 313 2119 
Q 313 2472 555 2709 
Q 797 2947 1181 2947 
Q 1350 2947 1591 2875 
Q 1750 2828 1803 2828 
Q 1853 2828 1881 2850 
Q 1909 2872 1947 2947 
L 2050 2947 
z
" transform="scale(0.015625)"/>
      <path id="TimesNewRomanPSMT-75" d="M 2709 2863 
L 2709 1128 
Q 2709 631 2732 520 
Q 2756 409 2807 365 
Q 2859 322 2928 322 
Q 3025 322 3147 375 
L 3191 266 
L 2334 -88 
L 2194 -88 
L 2194 519 
Q 1825 119 1631 15 
Q 1438 -88 1222 -88 
Q 981 -88 804 51 
Q 628 191 559 409 
Q 491 628 491 1028 
L 491 2306 
Q 491 2509 447 2587 
Q 403 2666 317 2708 
Q 231 2750 6 2747 
L 6 2863 
L 1009 2863 
L 1009 947 
Q 1009 547 1148 422 
Q 1288 297 1484 297 
Q 1619 297 1789 381 
Q 1959 466 2194 703 
L 2194 2325 
Q 2194 2569 2105 2655 
Q 2016 2741 1734 2747 
L 1734 2863 
L 2709 2863 
z
" transform="scale(0.015625)"/>
      <path id="TimesNewRomanPSMT-6c" d="M 1184 4444 
L 1184 647 
Q 1184 378 1223 290 
Q 1263 203 1344 158 
Q 1425 113 1647 113 
L 1647 0 
L 244 0 
L 244 113 
Q 441 113 512 153 
Q 584 194 625 287 
Q 666 381 666 647 
L 666 3247 
Q 666 3731 644 3842 
Q 622 3953 573 3993 
Q 525 4034 450 4034 
Q 369 4034 244 3984 
L 191 4094 
L 1044 4444 
L 1184 4444 
z
" transform="scale(0.015625)"/>
     </defs>
     <use xlink:href="#TimesNewRomanPSMT-63"/>
     <use xlink:href="#TimesNewRomanPSMT-61" x="44.384766"/>
     <use xlink:href="#TimesNewRomanPSMT-73" x="88.769531"/>
     <use xlink:href="#TimesNewRomanPSMT-75" x="127.685547"/>
     <use xlink:href="#TimesNewRomanPSMT-61" x="177.685547"/>
     <use xlink:href="#TimesNewRomanPSMT-6c" x="222.070312"/>
    </g>
   </g>
   <g id="text_2">
    <!-- 37.71% -->
    <g transform="translate(41.031563 204.94016) scale(0.14 -0.14)">
     <defs>
      <path id="TimesNewRomanPSMT-33" d="M 325 3431 
Q 506 3859 782 4092 
Q 1059 4325 1472 4325 
Q 1981 4325 2253 3994 
Q 2459 3747 2459 3466 
Q 2459 3003 1878 2509 
Q 2269 2356 2469 2072 
Q 2669 1788 2669 1403 
Q 2669 853 2319 450 
Q 1863 -75 997 -75 
Q 569 -75 414 31 
Q 259 138 259 259 
Q 259 350 332 419 
Q 406 488 509 488 
Q 588 488 669 463 
Q 722 447 909 348 
Q 1097 250 1169 231 
Q 1284 197 1416 197 
Q 1734 197 1970 444 
Q 2206 691 2206 1028 
Q 2206 1275 2097 1509 
Q 2016 1684 1919 1775 
Q 1784 1900 1550 2001 
Q 1316 2103 1072 2103 
L 972 2103 
L 972 2197 
Q 1219 2228 1467 2375 
Q 1716 2522 1828 2728 
Q 1941 2934 1941 3181 
Q 1941 3503 1739 3701 
Q 1538 3900 1238 3900 
Q 753 3900 428 3381 
L 325 3431 
z
" transform="scale(0.015625)"/>
      <path id="TimesNewRomanPSMT-37" d="M 644 4238 
L 2916 4238 
L 2916 4119 
L 1503 -88 
L 1153 -88 
L 2419 3728 
L 1253 3728 
Q 900 3728 750 3644 
Q 488 3500 328 3200 
L 238 3234 
L 644 4238 
z
" transform="scale(0.015625)"/>
      <path id="TimesNewRomanPSMT-2e" d="M 800 606 
Q 947 606 1047 504 
Q 1147 403 1147 259 
Q 1147 116 1045 14 
Q 944 -88 800 -88 
Q 656 -88 554 14 
Q 453 116 453 259 
Q 453 406 554 506 
Q 656 606 800 606 
z
" transform="scale(0.015625)"/>
      <path id="TimesNewRomanPSMT-31" d="M 750 3822 
L 1781 4325 
L 1884 4325 
L 1884 747 
Q 1884 391 1914 303 
Q 1944 216 2037 169 
Q 2131 122 2419 116 
L 2419 0 
L 825 0 
L 825 116 
Q 1125 122 1212 167 
Q 1300 213 1334 289 
Q 1369 366 1369 747 
L 1369 3034 
Q 1369 3497 1338 3628 
Q 1316 3728 1258 3775 
Q 1200 3822 1119 3822 
Q 1003 3822 797 3725 
L 750 3822 
z
" transform="scale(0.015625)"/>
      <path id="TimesNewRomanPSMT-25" d="M 4350 4334 
L 1263 -175 
L 984 -175 
L 4072 4334 
L 4350 4334 
z
M 1138 4334 
Q 1559 4334 1792 3984 
Q 2025 3634 2025 3181 
Q 2025 2638 1762 2341 
Q 1500 2044 1131 2044 
Q 884 2044 678 2180 
Q 472 2316 348 2584 
Q 225 2853 225 3181 
Q 225 3509 350 3786 
Q 475 4063 692 4198 
Q 909 4334 1138 4334 
z
M 1128 4159 
Q 969 4159 845 3971 
Q 722 3784 722 3184 
Q 722 2750 791 2522 
Q 844 2350 956 2256 
Q 1022 2200 1119 2200 
Q 1269 2200 1375 2363 
Q 1531 2603 1531 3166 
Q 1531 3759 1378 4000 
Q 1278 4159 1128 4159 
z
M 4206 2103 
Q 4428 2103 4648 1962 
Q 4869 1822 4989 1553 
Q 5109 1284 5109 963 
Q 5109 409 4843 117 
Q 4578 -175 4216 -175 
Q 3988 -175 3773 -34 
Q 3559 106 3436 367 
Q 3313 628 3313 963 
Q 3313 1291 3436 1562 
Q 3559 1834 3773 1968 
Q 3988 2103 4206 2103 
z
M 4209 1938 
Q 4059 1938 3950 1769 
Q 3809 1550 3809 941 
Q 3809 381 3953 159 
Q 4059 0 4209 0 
Q 4353 0 4466 172 
Q 4616 400 4616 956 
Q 4616 1544 4466 1778 
Q 4363 1938 4209 1938 
z
" transform="scale(0.015625)"/>
     </defs>
     <use xlink:href="#TimesNewRomanPSMT-33"/>
     <use xlink:href="#TimesNewRomanPSMT-37" x="50"/>
     <use xlink:href="#TimesNewRomanPSMT-2e" x="100"/>
     <use xlink:href="#TimesNewRomanPSMT-37" x="125"/>
     <use xlink:href="#TimesNewRomanPSMT-31" x="175"/>
     <use xlink:href="#TimesNewRomanPSMT-25" x="225"/>
    </g>
   </g>
   <g id="text_3">
    <!-- member -->
    <g transform="translate(214.801365 266.796276) scale(0.14 -0.14)">
     <defs>
      <path id="TimesNewRomanPSMT-6d" d="M 1050 2338 
Q 1363 2650 1419 2697 
Q 1559 2816 1721 2881 
Q 1884 2947 2044 2947 
Q 2313 2947 2506 2790 
Q 2700 2634 2766 2338 
Q 3088 2713 3309 2830 
Q 3531 2947 3766 2947 
Q 3994 2947 4170 2830 
Q 4347 2713 4450 2447 
Q 4519 2266 4519 1878 
L 4519 647 
Q 4519 378 4559 278 
Q 4591 209 4675 161 
Q 4759 113 4950 113 
L 4950 0 
L 3538 0 
L 3538 113 
L 3597 113 
Q 3781 113 3884 184 
Q 3956 234 3988 344 
Q 4000 397 4000 647 
L 4000 1878 
Q 4000 2228 3916 2372 
Q 3794 2572 3525 2572 
Q 3359 2572 3192 2489 
Q 3025 2406 2788 2181 
L 2781 2147 
L 2788 2013 
L 2788 647 
Q 2788 353 2820 281 
Q 2853 209 2943 161 
Q 3034 113 3253 113 
L 3253 0 
L 1806 0 
L 1806 113 
Q 2044 113 2133 169 
Q 2222 225 2256 338 
Q 2272 391 2272 647 
L 2272 1878 
Q 2272 2228 2169 2381 
Q 2031 2581 1784 2581 
Q 1616 2581 1450 2491 
Q 1191 2353 1050 2181 
L 1050 647 
Q 1050 366 1089 281 
Q 1128 197 1204 155 
Q 1281 113 1516 113 
L 1516 0 
L 100 0 
L 100 113 
Q 297 113 375 155 
Q 453 197 493 289 
Q 534 381 534 647 
L 534 1741 
Q 534 2213 506 2350 
Q 484 2453 437 2492 
Q 391 2531 309 2531 
Q 222 2531 100 2484 
L 53 2597 
L 916 2947 
L 1050 2947 
L 1050 2338 
z
" transform="scale(0.015625)"/>
      <path id="TimesNewRomanPSMT-65" d="M 681 1784 
Q 678 1147 991 784 
Q 1303 422 1725 422 
Q 2006 422 2214 576 
Q 2422 731 2563 1106 
L 2659 1044 
Q 2594 616 2278 264 
Q 1963 -88 1488 -88 
Q 972 -88 605 314 
Q 238 716 238 1394 
Q 238 2128 614 2539 
Q 991 2950 1559 2950 
Q 2041 2950 2350 2633 
Q 2659 2316 2659 1784 
L 681 1784 
z
M 681 1966 
L 2006 1966 
Q 1991 2241 1941 2353 
Q 1863 2528 1708 2628 
Q 1553 2728 1384 2728 
Q 1125 2728 920 2526 
Q 716 2325 681 1966 
z
" transform="scale(0.015625)"/>
      <path id="TimesNewRomanPSMT-62" d="M 984 2369 
Q 1400 2947 1881 2947 
Q 2322 2947 2650 2570 
Q 2978 2194 2978 1541 
Q 2978 778 2472 313 
Q 2038 -88 1503 -88 
Q 1253 -88 995 3 
Q 738 94 469 275 
L 469 3241 
Q 469 3728 445 3840 
Q 422 3953 372 3993 
Q 322 4034 247 4034 
Q 159 4034 28 3984 
L -16 4094 
L 844 4444 
L 984 4444 
L 984 2369 
z
M 984 2169 
L 984 456 
Q 1144 300 1314 220 
Q 1484 141 1663 141 
Q 1947 141 2192 453 
Q 2438 766 2438 1363 
Q 2438 1913 2192 2208 
Q 1947 2503 1634 2503 
Q 1469 2503 1303 2419 
Q 1178 2356 984 2169 
z
" transform="scale(0.015625)"/>
      <path id="TimesNewRomanPSMT-72" d="M 1038 2947 
L 1038 2303 
Q 1397 2947 1775 2947 
Q 1947 2947 2059 2842 
Q 2172 2738 2172 2600 
Q 2172 2478 2090 2393 
Q 2009 2309 1897 2309 
Q 1788 2309 1652 2417 
Q 1516 2525 1450 2525 
Q 1394 2525 1328 2463 
Q 1188 2334 1038 2041 
L 1038 669 
Q 1038 431 1097 309 
Q 1138 225 1241 169 
Q 1344 113 1538 113 
L 1538 0 
L 72 0 
L 72 113 
Q 291 113 397 181 
Q 475 231 506 341 
Q 522 394 522 644 
L 522 1753 
Q 522 2253 501 2348 
Q 481 2444 426 2487 
Q 372 2531 291 2531 
Q 194 2531 72 2484 
L 41 2597 
L 906 2947 
L 1038 2947 
z
" transform="scale(0.015625)"/>
     </defs>
     <use xlink:href="#TimesNewRomanPSMT-6d"/>
     <use xlink:href="#TimesNewRomanPSMT-65" x="77.783203"/>
     <use xlink:href="#TimesNewRomanPSMT-6d" x="122.167969"/>
     <use xlink:href="#TimesNewRomanPSMT-62" x="199.951172"/>
     <use xlink:href="#TimesNewRomanPSMT-65" x="249.951172"/>
     <use xlink:href="#TimesNewRomanPSMT-72" x="294.335938"/>
    </g>
   </g>
   <g id="text_4">
    <!-- 62.29% -->
    <g transform="translate(169.190738 257.029522) scale(0.14 -0.14)">
     <defs>
      <path id="TimesNewRomanPSMT-36" d="M 2869 4325 
L 2869 4209 
Q 2456 4169 2195 4045 
Q 1934 3922 1679 3669 
Q 1425 3416 1258 3105 
Q 1091 2794 978 2366 
Q 1428 2675 1881 2675 
Q 2316 2675 2634 2325 
Q 2953 1975 2953 1425 
Q 2953 894 2631 456 
Q 2244 -75 1606 -75 
Q 1172 -75 869 213 
Q 275 772 275 1663 
Q 275 2231 503 2743 
Q 731 3256 1154 3653 
Q 1578 4050 1965 4187 
Q 2353 4325 2688 4325 
L 2869 4325 
z
M 925 2138 
Q 869 1716 869 1456 
Q 869 1156 980 804 
Q 1091 453 1309 247 
Q 1469 100 1697 100 
Q 1969 100 2183 356 
Q 2397 613 2397 1088 
Q 2397 1622 2184 2012 
Q 1972 2403 1581 2403 
Q 1463 2403 1327 2353 
Q 1191 2303 925 2138 
z
" transform="scale(0.015625)"/>
      <path id="TimesNewRomanPSMT-32" d="M 2934 816 
L 2638 0 
L 138 0 
L 138 116 
Q 1241 1122 1691 1759 
Q 2141 2397 2141 2925 
Q 2141 3328 1894 3587 
Q 1647 3847 1303 3847 
Q 991 3847 742 3664 
Q 494 3481 375 3128 
L 259 3128 
Q 338 3706 661 4015 
Q 984 4325 1469 4325 
Q 1984 4325 2329 3994 
Q 2675 3663 2675 3213 
Q 2675 2891 2525 2569 
Q 2294 2063 1775 1497 
Q 997 647 803 472 
L 1909 472 
Q 2247 472 2383 497 
Q 2519 522 2628 598 
Q 2738 675 2819 816 
L 2934 816 
z
" transform="scale(0.015625)"/>
      <path id="TimesNewRomanPSMT-39" d="M 338 -88 
L 338 28 
Q 744 34 1094 217 
Q 1444 400 1770 856 
Q 2097 1313 2225 1859 
Q 1734 1544 1338 1544 
Q 891 1544 572 1889 
Q 253 2234 253 2806 
Q 253 3363 572 3797 
Q 956 4325 1575 4325 
Q 2097 4325 2469 3894 
Q 2925 3359 2925 2575 
Q 2925 1869 2578 1258 
Q 2231 647 1613 244 
Q 1109 -88 516 -88 
L 338 -88 
z
M 2275 2091 
Q 2331 2497 2331 2741 
Q 2331 3044 2228 3395 
Q 2125 3747 1936 3934 
Q 1747 4122 1506 4122 
Q 1228 4122 1018 3872 
Q 809 3622 809 3128 
Q 809 2469 1088 2097 
Q 1291 1828 1588 1828 
Q 1731 1828 1928 1897 
Q 2125 1966 2275 2091 
z
" transform="scale(0.015625)"/>
     </defs>
     <use xlink:href="#TimesNewRomanPSMT-36"/>
     <use xlink:href="#TimesNewRomanPSMT-32" x="50"/>
     <use xlink:href="#TimesNewRomanPSMT-2e" x="100"/>
     <use xlink:href="#TimesNewRomanPSMT-32" x="125"/>
     <use xlink:href="#TimesNewRomanPSMT-39" x="175"/>
     <use xlink:href="#TimesNewRomanPSMT-25" x="225"/>
    </g>
   </g>
   <g id="text_5">
    <!-- classic_bike -->
    <g transform="translate(92.479431 131.556176) scale(0.14 -0.14)">
     <defs>
      <path id="TimesNewRomanPSMT-69" d="M 928 4444 
Q 1059 4444 1151 4351 
Q 1244 4259 1244 4128 
Q 1244 3997 1151 3903 
Q 1059 3809 928 3809 
Q 797 3809 703 3903 
Q 609 3997 609 4128 
Q 609 4259 701 4351 
Q 794 4444 928 4444 
z
M 1188 2947 
L 1188 647 
Q 1188 378 1227 289 
Q 1266 200 1342 156 
Q 1419 113 1622 113 
L 1622 0 
L 231 0 
L 231 113 
Q 441 113 512 153 
Q 584 194 626 287 
Q 669 381 669 647 
L 669 1750 
Q 669 2216 641 2353 
Q 619 2453 572 2492 
Q 525 2531 444 2531 
Q 356 2531 231 2484 
L 188 2597 
L 1050 2947 
L 1188 2947 
z
" transform="scale(0.015625)"/>
      <path id="TimesNewRomanPSMT-5f" d="M 3256 -1381 
L -53 -1381 
L -53 -1119 
L 3256 -1119 
L 3256 -1381 
z
" transform="scale(0.015625)"/>
      <path id="TimesNewRomanPSMT-6b" d="M 1047 4444 
L 1047 1597 
L 1775 2259 
Q 2006 2472 2044 2528 
Q 2069 2566 2069 2603 
Q 2069 2666 2017 2711 
Q 1966 2756 1847 2763 
L 1847 2863 
L 3091 2863 
L 3091 2763 
Q 2834 2756 2664 2684 
Q 2494 2613 2291 2428 
L 1556 1750 
L 2291 822 
Q 2597 438 2703 334 
Q 2853 188 2966 144 
Q 3044 113 3238 113 
L 3238 0 
L 1847 0 
L 1847 113 
Q 1966 116 2008 148 
Q 2050 181 2050 241 
Q 2050 313 1925 472 
L 1047 1594 
L 1047 644 
Q 1047 366 1086 278 
Q 1125 191 1197 153 
Q 1269 116 1509 113 
L 1509 0 
L 53 0 
L 53 113 
Q 272 113 381 166 
Q 447 200 481 272 
Q 528 375 528 628 
L 528 3234 
Q 528 3731 506 3842 
Q 484 3953 434 3995 
Q 384 4038 303 4038 
Q 238 4038 106 3984 
L 53 4094 
L 903 4444 
L 1047 4444 
z
" transform="scale(0.015625)"/>
     </defs>
     <use xlink:href="#TimesNewRomanPSMT-63"/>
     <use xlink:href="#TimesNewRomanPSMT-6c" x="44.384766"/>
     <use xlink:href="#TimesNewRomanPSMT-61" x="72.167969"/>
     <use xlink:href="#TimesNewRomanPSMT-73" x="116.552734"/>
     <use xlink:href="#TimesNewRomanPSMT-73" x="155.46875"/>
     <use xlink:href="#TimesNewRomanPSMT-69" x="194.384766"/>
     <use xlink:href="#TimesNewRomanPSMT-63" x="222.167969"/>
     <use xlink:href="#TimesNewRomanPSMT-5f" x="266.552734"/>
     <use xlink:href="#TimesNewRomanPSMT-62" x="316.552734"/>
     <use xlink:href="#TimesNewRomanPSMT-69" x="366.552734"/>
     <use xlink:href="#TimesNewRomanPSMT-6b" x="394.335938"/>
     <use xlink:href="#TimesNewRomanPSMT-65" x="444.335938"/>
    </g>
   </g>
  </g>
  <g id="axes_2">
   <g id="patch_4">
    <path d="M 412.173598 141.158791 
C 400.520312 141.158791 388.986405 143.514702 378.26657 148.084626 
C 367.546735 152.65455 357.860604 159.344856 349.791579 167.752584 
C 341.722554 176.160312 335.435955 186.113202 331.310428 197.011784 
C 327.184901 207.910366 325.304971 219.531347 325.783868 231.174788 
C 326.262765 242.818229 329.090677 254.245576 334.097276 264.768552 
C 339.103876 275.291527 346.186586 284.694535 354.918812 292.411224 
C 363.651037 300.127914 373.85387 306.000184 384.912785 309.674344 
C 395.9717 313.348503 407.660121 314.749276 419.274045 313.792291 
L 416.315525 277.887821 
C 409.540736 278.446062 402.722491 277.628945 396.271457 275.485685 
C 389.820423 273.342425 383.868771 269.916934 378.774973 265.415532 
C 373.681174 260.91413 369.549593 255.429042 366.629077 249.29064 
C 363.70856 243.152237 362.058945 236.486285 361.779589 229.694277 
C 361.500232 222.90227 362.596858 216.123364 365.003415 209.765858 
C 367.409973 203.408352 371.077155 197.6025 375.784087 192.697992 
C 380.491018 187.793484 386.141261 183.890805 392.394498 181.225016 
C 398.647735 178.559227 405.375848 177.184946 412.173598 177.184946 
z
" style="fill: #0c5da5; opacity: 0.8; stroke: #ffffff; stroke-linejoin: miter"/>
   </g>
   <g id="patch_5">
    <path d="M 419.274045 313.792291 
C 441.507178 311.960286 462.190807 301.592894 476.963262 284.876345 
C 491.735717 268.159796 499.480106 246.357967 498.563327 224.068329 
C 497.646548 201.778691 488.137915 180.686483 472.042567 165.239535 
C 455.947219 149.792588 434.482065 141.158787 412.173581 141.158791 
L 412.173588 177.184946 
C 425.18687 177.184944 437.70821 182.221327 447.097163 191.232047 
C 456.486116 200.242766 462.032819 212.546554 462.567606 225.548843 
C 463.102394 238.551132 458.584834 251.268865 449.967569 261.020186 
C 441.350303 270.771506 429.284853 276.819151 416.315525 277.887821 
z
" style="fill: #00b945; opacity: 0.8; stroke: #ffffff; stroke-linejoin: miter"/>
   </g>
   <g id="text_6">
    <!-- casual -->
    <g transform="translate(282.162395 234.893392) scale(0.14 -0.14)">
     <use xlink:href="#TimesNewRomanPSMT-63"/>
     <use xlink:href="#TimesNewRomanPSMT-61" x="44.384766"/>
     <use xlink:href="#TimesNewRomanPSMT-73" x="88.769531"/>
     <use xlink:href="#TimesNewRomanPSMT-75" x="127.685547"/>
     <use xlink:href="#TimesNewRomanPSMT-61" x="177.685547"/>
     <use xlink:href="#TimesNewRomanPSMT-6c" x="222.070312"/>
    </g>
   </g>
   <g id="text_7">
    <!-- 51.31% -->
    <g transform="translate(321.481033 233.827424) scale(0.14 -0.14)">
     <defs>
      <path id="TimesNewRomanPSMT-35" d="M 2778 4238 
L 2534 3706 
L 1259 3706 
L 981 3138 
Q 1809 3016 2294 2522 
Q 2709 2097 2709 1522 
Q 2709 1188 2573 903 
Q 2438 619 2231 419 
Q 2025 219 1772 97 
Q 1413 -75 1034 -75 
Q 653 -75 479 54 
Q 306 184 306 341 
Q 306 428 378 495 
Q 450 563 559 563 
Q 641 563 702 538 
Q 763 513 909 409 
Q 1144 247 1384 247 
Q 1750 247 2026 523 
Q 2303 800 2303 1197 
Q 2303 1581 2056 1914 
Q 1809 2247 1375 2428 
Q 1034 2569 447 2591 
L 1259 4238 
L 2778 4238 
z
" transform="scale(0.015625)"/>
     </defs>
     <use xlink:href="#TimesNewRomanPSMT-35"/>
     <use xlink:href="#TimesNewRomanPSMT-31" x="50"/>
     <use xlink:href="#TimesNewRomanPSMT-2e" x="100"/>
     <use xlink:href="#TimesNewRomanPSMT-33" x="125"/>
     <use xlink:href="#TimesNewRomanPSMT-31" x="175"/>
     <use xlink:href="#TimesNewRomanPSMT-25" x="225"/>
    </g>
   </g>
   <g id="text_8">
    <!-- member -->
    <g transform="translate(507.2023 227.076287) scale(0.14 -0.14)">
     <use xlink:href="#TimesNewRomanPSMT-6d"/>
     <use xlink:href="#TimesNewRomanPSMT-65" x="77.783203"/>
     <use xlink:href="#TimesNewRomanPSMT-6d" x="122.167969"/>
     <use xlink:href="#TimesNewRomanPSMT-62" x="199.951172"/>
     <use xlink:href="#TimesNewRomanPSMT-65" x="249.951172"/>
     <use xlink:href="#TimesNewRomanPSMT-72" x="294.335938"/>
    </g>
   </g>
   <g id="text_9">
    <!-- 48.69% -->
    <g transform="translate(459.7046 228.142257) scale(0.14 -0.14)">
     <defs>
      <path id="TimesNewRomanPSMT-34" d="M 2978 1563 
L 2978 1119 
L 2409 1119 
L 2409 0 
L 1894 0 
L 1894 1119 
L 100 1119 
L 100 1519 
L 2066 4325 
L 2409 4325 
L 2409 1563 
L 2978 1563 
z
M 1894 1563 
L 1894 3666 
L 406 1563 
L 1894 1563 
z
" transform="scale(0.015625)"/>
      <path id="TimesNewRomanPSMT-38" d="M 1228 2134 
Q 725 2547 579 2797 
Q 434 3047 434 3316 
Q 434 3728 753 4026 
Q 1072 4325 1600 4325 
Q 2113 4325 2425 4047 
Q 2738 3769 2738 3413 
Q 2738 3175 2569 2928 
Q 2400 2681 1866 2347 
Q 2416 1922 2594 1678 
Q 2831 1359 2831 1006 
Q 2831 559 2490 242 
Q 2150 -75 1597 -75 
Q 994 -75 656 303 
Q 388 606 388 966 
Q 388 1247 577 1523 
Q 766 1800 1228 2134 
z
M 1719 2469 
Q 2094 2806 2194 3001 
Q 2294 3197 2294 3444 
Q 2294 3772 2109 3958 
Q 1925 4144 1606 4144 
Q 1288 4144 1088 3959 
Q 888 3775 888 3528 
Q 888 3366 970 3203 
Q 1053 3041 1206 2894 
L 1719 2469 
z
M 1375 2016 
Q 1116 1797 991 1539 
Q 866 1281 866 981 
Q 866 578 1086 336 
Q 1306 94 1647 94 
Q 1984 94 2187 284 
Q 2391 475 2391 747 
Q 2391 972 2272 1150 
Q 2050 1481 1375 2016 
z
" transform="scale(0.015625)"/>
     </defs>
     <use xlink:href="#TimesNewRomanPSMT-34"/>
     <use xlink:href="#TimesNewRomanPSMT-38" x="50"/>
     <use xlink:href="#TimesNewRomanPSMT-2e" x="100"/>
     <use xlink:href="#TimesNewRomanPSMT-36" x="125"/>
     <use xlink:href="#TimesNewRomanPSMT-39" x="175"/>
     <use xlink:href="#TimesNewRomanPSMT-25" x="225"/>
    </g>
   </g>
   <g id="text_10">
    <!-- docked_bike -->
    <g transform="translate(376.406879 131.556176) scale(0.14 -0.14)">
     <defs>
      <path id="TimesNewRomanPSMT-64" d="M 2222 322 
Q 2013 103 1813 7 
Q 1613 -88 1381 -88 
Q 913 -88 563 304 
Q 213 697 213 1313 
Q 213 1928 600 2439 
Q 988 2950 1597 2950 
Q 1975 2950 2222 2709 
L 2222 3238 
Q 2222 3728 2198 3840 
Q 2175 3953 2125 3993 
Q 2075 4034 2000 4034 
Q 1919 4034 1784 3984 
L 1744 4094 
L 2597 4444 
L 2738 4444 
L 2738 1134 
Q 2738 631 2761 520 
Q 2784 409 2836 365 
Q 2888 322 2956 322 
Q 3041 322 3181 375 
L 3216 266 
L 2366 -88 
L 2222 -88 
L 2222 322 
z
M 2222 541 
L 2222 2016 
Q 2203 2228 2109 2403 
Q 2016 2578 1861 2667 
Q 1706 2756 1559 2756 
Q 1284 2756 1069 2509 
Q 784 2184 784 1559 
Q 784 928 1059 592 
Q 1334 256 1672 256 
Q 1956 256 2222 541 
z
" transform="scale(0.015625)"/>
      <path id="TimesNewRomanPSMT-6f" d="M 1600 2947 
Q 2250 2947 2644 2453 
Q 2978 2031 2978 1484 
Q 2978 1100 2793 706 
Q 2609 313 2286 112 
Q 1963 -88 1566 -88 
Q 919 -88 538 428 
Q 216 863 216 1403 
Q 216 1797 411 2186 
Q 606 2575 925 2761 
Q 1244 2947 1600 2947 
z
M 1503 2744 
Q 1338 2744 1170 2645 
Q 1003 2547 900 2300 
Q 797 2053 797 1666 
Q 797 1041 1045 587 
Q 1294 134 1700 134 
Q 2003 134 2200 384 
Q 2397 634 2397 1244 
Q 2397 2006 2069 2444 
Q 1847 2744 1503 2744 
z
" transform="scale(0.015625)"/>
     </defs>
     <use xlink:href="#TimesNewRomanPSMT-64"/>
     <use xlink:href="#TimesNewRomanPSMT-6f" x="50"/>
     <use xlink:href="#TimesNewRomanPSMT-63" x="100"/>
     <use xlink:href="#TimesNewRomanPSMT-6b" x="144.384766"/>
     <use xlink:href="#TimesNewRomanPSMT-65" x="194.384766"/>
     <use xlink:href="#TimesNewRomanPSMT-64" x="238.769531"/>
     <use xlink:href="#TimesNewRomanPSMT-5f" x="288.769531"/>
     <use xlink:href="#TimesNewRomanPSMT-62" x="338.769531"/>
     <use xlink:href="#TimesNewRomanPSMT-69" x="388.769531"/>
     <use xlink:href="#TimesNewRomanPSMT-6b" x="416.552734"/>
     <use xlink:href="#TimesNewRomanPSMT-65" x="466.552734"/>
    </g>
   </g>
  </g>
  <g id="axes_3">
   <g id="patch_6">
    <path d="M 697.655265 141.158791 
C 677.31796 141.158791 657.618572 148.334237 642.045687 161.414421 
C 626.472802 174.494604 616.003363 192.658959 612.491415 212.690738 
C 608.979467 232.722517 612.645328 253.365056 622.839806 270.962742 
C 633.034283 288.560429 649.117841 302.009299 668.242224 308.927674 
L 680.497658 275.050128 
C 669.341768 271.014409 659.959692 263.169235 654.012914 252.903917 
C 648.066135 242.6386 645.927716 230.597119 647.976352 218.911915 
C 650.024989 207.22671 656.132161 196.630837 665.216344 189.00073 
C 674.300527 181.370623 685.791837 177.184946 697.655265 177.184946 
z
" style="fill: #0c5da5; opacity: 0.8; stroke: #ffffff; stroke-linejoin: miter"/>
   </g>
   <g id="patch_7">
    <path d="M 668.242224 308.927674 
C 680.107719 313.220098 692.770269 314.863539 705.33839 313.742294 
C 717.906511 312.621049 730.07817 308.762063 740.996445 302.437022 
C 751.914719 296.11198 761.317223 287.472884 768.541991 277.127954 
C 775.76676 266.783023 780.640168 254.980865 782.819114 242.552387 
C 784.99806 230.123909 784.430179 217.36779 781.155452 205.182101 
C 777.880726 192.996411 771.97785 181.673995 763.862406 172.011984 
C 755.746963 162.349974 745.61398 154.580565 734.176851 149.250748 
C 722.739723 143.920932 710.273302 141.158791 697.655265 141.158791 
L 697.655265 177.184946 
C 705.015786 177.184946 712.287865 178.796194 718.959524 181.905254 
C 725.631182 185.014314 731.542089 189.546469 736.276097 195.182642 
C 741.010106 200.818815 744.45345 207.423558 746.363708 214.531877 
C 748.273965 221.640195 748.605229 229.081265 747.334177 236.33121 
C 746.063125 243.581155 743.220303 250.465748 739.005855 256.500291 
C 734.791407 262.534833 729.306613 267.574306 722.93762 271.263914 
C 716.568626 274.953521 709.468492 277.204596 702.137088 277.858656 
C 694.805684 278.512715 687.419196 277.554042 680.497658 275.050128 
z
" style="fill: #00b945; opacity: 0.8; stroke: #ffffff; stroke-linejoin: miter"/>
   </g>
   <g id="text_11">
    <!-- casual -->
    <g transform="translate(568.99253 214.560937) scale(0.14 -0.14)">
     <use xlink:href="#TimesNewRomanPSMT-63"/>
     <use xlink:href="#TimesNewRomanPSMT-61" x="44.384766"/>
     <use xlink:href="#TimesNewRomanPSMT-73" x="88.769531"/>
     <use xlink:href="#TimesNewRomanPSMT-75" x="127.685547"/>
     <use xlink:href="#TimesNewRomanPSMT-61" x="177.685547"/>
     <use xlink:href="#TimesNewRomanPSMT-6c" x="222.070312"/>
    </g>
   </g>
   <g id="text_12">
    <!-- 44.48% -->
    <g transform="translate(607.943404 219.040184) scale(0.14 -0.14)">
     <use xlink:href="#TimesNewRomanPSMT-34"/>
     <use xlink:href="#TimesNewRomanPSMT-34" x="50"/>
     <use xlink:href="#TimesNewRomanPSMT-2e" x="100"/>
     <use xlink:href="#TimesNewRomanPSMT-34" x="125"/>
     <use xlink:href="#TimesNewRomanPSMT-38" x="175"/>
     <use xlink:href="#TimesNewRomanPSMT-25" x="225"/>
    </g>
   </g>
   <g id="text_13">
    <!-- member -->
    <g transform="translate(791.335499 247.408751) scale(0.14 -0.14)">
     <use xlink:href="#TimesNewRomanPSMT-6d"/>
     <use xlink:href="#TimesNewRomanPSMT-65" x="77.783203"/>
     <use xlink:href="#TimesNewRomanPSMT-6d" x="122.167969"/>
     <use xlink:href="#TimesNewRomanPSMT-62" x="199.951172"/>
     <use xlink:href="#TimesNewRomanPSMT-65" x="249.951172"/>
     <use xlink:href="#TimesNewRomanPSMT-72" x="294.335938"/>
    </g>
   </g>
   <g id="text_14">
    <!-- 55.52% -->
    <g transform="translate(744.205563 242.929503) scale(0.14 -0.14)">
     <use xlink:href="#TimesNewRomanPSMT-35"/>
     <use xlink:href="#TimesNewRomanPSMT-35" x="50"/>
     <use xlink:href="#TimesNewRomanPSMT-2e" x="100"/>
     <use xlink:href="#TimesNewRomanPSMT-35" x="125"/>
     <use xlink:href="#TimesNewRomanPSMT-32" x="175"/>
     <use xlink:href="#TimesNewRomanPSMT-25" x="225"/>
    </g>
   </g>
   <g id="text_15">
    <!-- electric_bike -->
    <g transform="translate(661.509015 131.556176) scale(0.14 -0.14)">
     <defs>
      <path id="TimesNewRomanPSMT-74" d="M 1031 3803 
L 1031 2863 
L 1700 2863 
L 1700 2644 
L 1031 2644 
L 1031 788 
Q 1031 509 1111 412 
Q 1191 316 1316 316 
Q 1419 316 1516 380 
Q 1613 444 1666 569 
L 1788 569 
Q 1678 263 1478 108 
Q 1278 -47 1066 -47 
Q 922 -47 784 33 
Q 647 113 581 261 
Q 516 409 516 719 
L 516 2644 
L 63 2644 
L 63 2747 
Q 234 2816 414 2980 
Q 594 3144 734 3369 
Q 806 3488 934 3803 
L 1031 3803 
z
" transform="scale(0.015625)"/>
     </defs>
     <use xlink:href="#TimesNewRomanPSMT-65"/>
     <use xlink:href="#TimesNewRomanPSMT-6c" x="44.384766"/>
     <use xlink:href="#TimesNewRomanPSMT-65" x="72.167969"/>
     <use xlink:href="#TimesNewRomanPSMT-63" x="116.552734"/>
     <use xlink:href="#TimesNewRomanPSMT-74" x="160.9375"/>
     <use xlink:href="#TimesNewRomanPSMT-72" x="188.720703"/>
     <use xlink:href="#TimesNewRomanPSMT-69" x="222.021484"/>
     <use xlink:href="#TimesNewRomanPSMT-63" x="249.804688"/>
     <use xlink:href="#TimesNewRomanPSMT-5f" x="294.189453"/>
     <use xlink:href="#TimesNewRomanPSMT-62" x="344.189453"/>
     <use xlink:href="#TimesNewRomanPSMT-69" x="394.189453"/>
     <use xlink:href="#TimesNewRomanPSMT-6b" x="421.972656"/>
     <use xlink:href="#TimesNewRomanPSMT-65" x="471.972656"/>
    </g>
   </g>
  </g>
  <g id="text_16">
   <!-- Proportion of Rides by Rideable Type -->
   <g transform="translate(269.060974 17.4875) scale(0.2 -0.2)">
    <defs>
     <path id="TimesNewRomanPSMT-50" d="M 1313 1984 
L 1313 750 
Q 1313 350 1400 253 
Q 1519 116 1759 116 
L 1922 116 
L 1922 0 
L 106 0 
L 106 116 
L 266 116 
Q 534 116 650 291 
Q 713 388 713 750 
L 713 3488 
Q 713 3888 628 3984 
Q 506 4122 266 4122 
L 106 4122 
L 106 4238 
L 1659 4238 
Q 2228 4238 2556 4120 
Q 2884 4003 3109 3725 
Q 3334 3447 3334 3066 
Q 3334 2547 2992 2222 
Q 2650 1897 2025 1897 
Q 1872 1897 1694 1919 
Q 1516 1941 1313 1984 
z
M 1313 2163 
Q 1478 2131 1606 2115 
Q 1734 2100 1825 2100 
Q 2150 2100 2386 2351 
Q 2622 2603 2622 3003 
Q 2622 3278 2509 3514 
Q 2397 3750 2190 3867 
Q 1984 3984 1722 3984 
Q 1563 3984 1313 3925 
L 1313 2163 
z
" transform="scale(0.015625)"/>
     <path id="TimesNewRomanPSMT-70" d="M -6 2578 
L 875 2934 
L 994 2934 
L 994 2266 
Q 1216 2644 1439 2795 
Q 1663 2947 1909 2947 
Q 2341 2947 2628 2609 
Q 2981 2197 2981 1534 
Q 2981 794 2556 309 
Q 2206 -88 1675 -88 
Q 1444 -88 1275 -22 
Q 1150 25 994 166 
L 994 -706 
Q 994 -1000 1030 -1079 
Q 1066 -1159 1155 -1206 
Q 1244 -1253 1478 -1253 
L 1478 -1369 
L -22 -1369 
L -22 -1253 
L 56 -1253 
Q 228 -1256 350 -1188 
Q 409 -1153 442 -1076 
Q 475 -1000 475 -688 
L 475 2019 
Q 475 2297 450 2372 
Q 425 2447 370 2484 
Q 316 2522 222 2522 
Q 147 2522 31 2478 
L -6 2578 
z
M 994 2081 
L 994 1013 
Q 994 666 1022 556 
Q 1066 375 1236 237 
Q 1406 100 1666 100 
Q 1978 100 2172 344 
Q 2425 663 2425 1241 
Q 2425 1897 2138 2250 
Q 1938 2494 1663 2494 
Q 1513 2494 1366 2419 
Q 1253 2363 994 2081 
z
" transform="scale(0.015625)"/>
     <path id="TimesNewRomanPSMT-6e" d="M 1034 2341 
Q 1538 2947 1994 2947 
Q 2228 2947 2397 2830 
Q 2566 2713 2666 2444 
Q 2734 2256 2734 1869 
L 2734 647 
Q 2734 375 2778 278 
Q 2813 200 2889 156 
Q 2966 113 3172 113 
L 3172 0 
L 1756 0 
L 1756 113 
L 1816 113 
Q 2016 113 2095 173 
Q 2175 234 2206 353 
Q 2219 400 2219 647 
L 2219 1819 
Q 2219 2209 2117 2386 
Q 2016 2563 1775 2563 
Q 1403 2563 1034 2156 
L 1034 647 
Q 1034 356 1069 288 
Q 1113 197 1189 155 
Q 1266 113 1500 113 
L 1500 0 
L 84 0 
L 84 113 
L 147 113 
Q 366 113 442 223 
Q 519 334 519 647 
L 519 1709 
Q 519 2225 495 2337 
Q 472 2450 423 2490 
Q 375 2531 294 2531 
Q 206 2531 84 2484 
L 38 2597 
L 900 2947 
L 1034 2947 
L 1034 2341 
z
" transform="scale(0.015625)"/>
     <path id="TimesNewRomanPSMT-20" transform="scale(0.015625)"/>
     <path id="TimesNewRomanPSMT-66" d="M 1319 2638 
L 1319 756 
Q 1319 356 1406 250 
Q 1522 113 1716 113 
L 1975 113 
L 1975 0 
L 266 0 
L 266 113 
L 394 113 
Q 519 113 622 175 
Q 725 238 764 344 
Q 803 450 803 756 
L 803 2638 
L 247 2638 
L 247 2863 
L 803 2863 
L 803 3050 
Q 803 3478 940 3775 
Q 1078 4072 1361 4255 
Q 1644 4438 1997 4438 
Q 2325 4438 2600 4225 
Q 2781 4084 2781 3909 
Q 2781 3816 2700 3733 
Q 2619 3650 2525 3650 
Q 2453 3650 2373 3701 
Q 2294 3753 2178 3923 
Q 2063 4094 1966 4153 
Q 1869 4213 1750 4213 
Q 1606 4213 1506 4136 
Q 1406 4059 1362 3898 
Q 1319 3738 1319 3069 
L 1319 2863 
L 2056 2863 
L 2056 2638 
L 1319 2638 
z
" transform="scale(0.015625)"/>
     <path id="TimesNewRomanPSMT-52" d="M 4325 0 
L 3194 0 
L 1759 1981 
Q 1600 1975 1500 1975 
Q 1459 1975 1412 1976 
Q 1366 1978 1316 1981 
L 1316 750 
Q 1316 350 1403 253 
Q 1522 116 1759 116 
L 1925 116 
L 1925 0 
L 109 0 
L 109 116 
L 269 116 
Q 538 116 653 291 
Q 719 388 719 750 
L 719 3488 
Q 719 3888 631 3984 
Q 509 4122 269 4122 
L 109 4122 
L 109 4238 
L 1653 4238 
Q 2328 4238 2648 4139 
Q 2969 4041 3192 3777 
Q 3416 3513 3416 3147 
Q 3416 2756 3161 2468 
Q 2906 2181 2372 2063 
L 3247 847 
Q 3547 428 3762 290 
Q 3978 153 4325 116 
L 4325 0 
z
M 1316 2178 
Q 1375 2178 1419 2176 
Q 1463 2175 1491 2175 
Q 2097 2175 2405 2437 
Q 2713 2700 2713 3106 
Q 2713 3503 2464 3751 
Q 2216 4000 1806 4000 
Q 1625 4000 1316 3941 
L 1316 2178 
z
" transform="scale(0.015625)"/>
     <path id="TimesNewRomanPSMT-79" d="M 38 2863 
L 1372 2863 
L 1372 2747 
L 1306 2747 
Q 1166 2747 1095 2686 
Q 1025 2625 1025 2534 
Q 1025 2413 1128 2197 
L 1825 753 
L 2466 2334 
Q 2519 2463 2519 2588 
Q 2519 2644 2497 2672 
Q 2472 2706 2419 2726 
Q 2366 2747 2231 2747 
L 2231 2863 
L 3163 2863 
L 3163 2747 
Q 3047 2734 2984 2696 
Q 2922 2659 2847 2556 
Q 2819 2513 2741 2316 
L 1575 -541 
Q 1406 -956 1132 -1168 
Q 859 -1381 606 -1381 
Q 422 -1381 303 -1275 
Q 184 -1169 184 -1031 
Q 184 -900 270 -820 
Q 356 -741 506 -741 
Q 609 -741 788 -809 
Q 913 -856 944 -856 
Q 1038 -856 1148 -759 
Q 1259 -663 1372 -384 
L 1575 113 
L 547 2272 
Q 500 2369 397 2513 
Q 319 2622 269 2659 
Q 197 2709 38 2747 
L 38 2863 
z
" transform="scale(0.015625)"/>
     <path id="TimesNewRomanPSMT-54" d="M 3703 4238 
L 3750 3244 
L 3631 3244 
Q 3597 3506 3538 3619 
Q 3441 3800 3280 3886 
Q 3119 3972 2856 3972 
L 2259 3972 
L 2259 734 
Q 2259 344 2344 247 
Q 2463 116 2709 116 
L 2856 116 
L 2856 0 
L 1059 0 
L 1059 116 
L 1209 116 
Q 1478 116 1591 278 
Q 1659 378 1659 734 
L 1659 3972 
L 1150 3972 
Q 853 3972 728 3928 
Q 566 3869 450 3700 
Q 334 3531 313 3244 
L 194 3244 
L 244 4238 
L 3703 4238 
z
" transform="scale(0.015625)"/>
    </defs>
    <use xlink:href="#TimesNewRomanPSMT-50"/>
    <use xlink:href="#TimesNewRomanPSMT-72" x="55.615234"/>
    <use xlink:href="#TimesNewRomanPSMT-6f" x="88.916016"/>
    <use xlink:href="#TimesNewRomanPSMT-70" x="138.916016"/>
    <use xlink:href="#TimesNewRomanPSMT-6f" x="188.916016"/>
    <use xlink:href="#TimesNewRomanPSMT-72" x="238.916016"/>
    <use xlink:href="#TimesNewRomanPSMT-74" x="272.216797"/>
    <use xlink:href="#TimesNewRomanPSMT-69" x="300"/>
    <use xlink:href="#TimesNewRomanPSMT-6f" x="327.783203"/>
    <use xlink:href="#TimesNewRomanPSMT-6e" x="377.783203"/>
    <use xlink:href="#TimesNewRomanPSMT-20" x="427.783203"/>
    <use xlink:href="#TimesNewRomanPSMT-6f" x="452.783203"/>
    <use xlink:href="#TimesNewRomanPSMT-66" x="502.783203"/>
    <use xlink:href="#TimesNewRomanPSMT-20" x="536.083984"/>
    <use xlink:href="#TimesNewRomanPSMT-52" x="561.083984"/>
    <use xlink:href="#TimesNewRomanPSMT-69" x="627.783203"/>
    <use xlink:href="#TimesNewRomanPSMT-64" x="655.566406"/>
    <use xlink:href="#TimesNewRomanPSMT-65" x="705.566406"/>
    <use xlink:href="#TimesNewRomanPSMT-73" x="749.951172"/>
    <use xlink:href="#TimesNewRomanPSMT-20" x="788.867188"/>
    <use xlink:href="#TimesNewRomanPSMT-62" x="813.867188"/>
    <use xlink:href="#TimesNewRomanPSMT-79" x="863.867188"/>
    <use xlink:href="#TimesNewRomanPSMT-20" x="913.867188"/>
    <use xlink:href="#TimesNewRomanPSMT-52" x="938.867188"/>
    <use xlink:href="#TimesNewRomanPSMT-69" x="1005.566406"/>
    <use xlink:href="#TimesNewRomanPSMT-64" x="1033.349609"/>
    <use xlink:href="#TimesNewRomanPSMT-65" x="1083.349609"/>
    <use xlink:href="#TimesNewRomanPSMT-61" x="1127.734375"/>
    <use xlink:href="#TimesNewRomanPSMT-62" x="1172.119141"/>
    <use xlink:href="#TimesNewRomanPSMT-6c" x="1222.119141"/>
    <use xlink:href="#TimesNewRomanPSMT-65" x="1249.902344"/>
    <use xlink:href="#TimesNewRomanPSMT-20" x="1294.287109"/>
    <use xlink:href="#TimesNewRomanPSMT-54" x="1317.537109"/>
    <use xlink:href="#TimesNewRomanPSMT-79" x="1371.621094"/>
    <use xlink:href="#TimesNewRomanPSMT-70" x="1421.621094"/>
    <use xlink:href="#TimesNewRomanPSMT-65" x="1471.621094"/>
   </g>
  </g>
 </g>
</svg>
