<?xml version="1.0" encoding="utf-8" standalone="no"?>
<!DOCTYPE svg PUBLIC "-//W3C//DTD SVG 1.1//EN"
  "http://www.w3.org/Graphics/SVG/1.1/DTD/svg11.dtd">
<svg xmlns:xlink="http://www.w3.org/1999/xlink" width="552.373563pt" height="372.96pt" viewBox="0 0 552.373563 372.96" xmlns="http://www.w3.org/2000/svg" version="1.1">
 <metadata>
  <rdf:RDF xmlns:dc="http://purl.org/dc/elements/1.1/" xmlns:cc="http://creativecommons.org/ns#" xmlns:rdf="http://www.w3.org/1999/02/22-rdf-syntax-ns#">
   <cc:Work>
    <dc:type rdf:resource="http://purl.org/dc/dcmitype/StillImage"/>
    <dc:date>2023-09-11T17:40:18.050039</dc:date>
    <dc:format>image/svg+xml</dc:format>
    <dc:creator>
     <cc:Agent>
      <dc:title>Matplotlib v3.7.2, https://matplotlib.org/</dc:title>
     </cc:Agent>
    </dc:creator>
   </cc:Work>
  </rdf:RDF>
 </metadata>
 <defs>
  <style type="text/css">*{stroke-linejoin: round; stroke-linecap: butt}</style>
 </defs>
 <g id="figure_1">
  <g id="patch_1">
   <path d="M 0 372.96 
L 552.373563 372.96 
L 552.373563 0 
L 0 0 
z
" style="fill: #ffffff"/>
  </g>
  <g id="axes_1">
   <g id="PolyCollection_1">
    <defs>
     <path id="m89606b2abc" d="M 77.671137 -102.365393 
L 77.671137 -20.225455 
L 85.741895 -20.225455 
L 85.741895 -102.365393 
L 85.741895 -102.365393 
L 77.671137 -102.365393 
z
" style="stroke: #db5f57; stroke-opacity: 0.99"/>
    </defs>
    <g clip-path="url(#pe9aba647f5)">
     <use xlink:href="#m89606b2abc" x="0" y="372.96" style="fill: #db5f57; fill-opacity: 0.99; stroke: #db5f57; stroke-opacity: 0.99"/>
    </g>
   </g>
   <g id="PolyCollection_2">
    <defs>
     <path id="m2857aacce6" d="M 77.671137 -190.860948 
L 77.671137 -130.074484 
L 85.741895 -130.074484 
L 85.741895 -190.860948 
L 85.741895 -190.860948 
L 77.671137 -190.860948 
z
" style="stroke: #b9db57; stroke-opacity: 0.99"/>
    </defs>
    <g clip-path="url(#pe9aba647f5)">
     <use xlink:href="#m2857aacce6" x="0" y="372.96" style="fill: #b9db57; fill-opacity: 0.99; stroke: #b9db57; stroke-opacity: 0.99"/>
    </g>
   </g>
   <g id="PolyCollection_3">
    <defs>
     <path id="mc711f1ff4b" d="M 77.671137 -352.734545 
L 77.671137 -218.570039 
L 85.741895 -218.570039 
L 85.741895 -352.734545 
L 85.741895 -352.734545 
L 77.671137 -352.734545 
z
" style="stroke: #57db94; stroke-opacity: 0.99"/>
    </defs>
    <g clip-path="url(#pe9aba647f5)">
     <use xlink:href="#mc711f1ff4b" x="0" y="372.96" style="fill: #57db94; fill-opacity: 0.99; stroke: #57db94; stroke-opacity: 0.99"/>
    </g>
   </g>
   <g id="PolyCollection_4">
    <defs>
     <path id="mbabdaecb73" d="M 489.279793 -177.540763 
L 489.279793 -20.225455 
L 497.350551 -20.225455 
L 497.350551 -177.540763 
L 497.350551 -177.540763 
L 489.279793 -177.540763 
z
" style="stroke: #5784db; stroke-opacity: 0.99"/>
    </defs>
    <g clip-path="url(#pe9aba647f5)">
     <use xlink:href="#mbabdaecb73" x="0" y="372.96" style="fill: #5784db; fill-opacity: 0.99; stroke: #5784db; stroke-opacity: 0.99"/>
    </g>
   </g>
   <g id="PolyCollection_5">
    <defs>
     <path id="m4e4620b5cf" d="M 489.279793 -325.025455 
L 489.279793 -205.249854 
L 497.350551 -205.249854 
L 497.350551 -325.025455 
L 497.350551 -325.025455 
L 489.279793 -325.025455 
z
" style="stroke: #c957db; stroke-opacity: 0.99"/>
    </defs>
    <g clip-path="url(#pe9aba647f5)">
     <use xlink:href="#m4e4620b5cf" x="0" y="372.96" style="fill: #c957db; fill-opacity: 0.99; stroke: #c957db; stroke-opacity: 0.99"/>
    </g>
   </g>
   <g id="PolyCollection_6">
    <defs>
     <path id="m9ced77c2c7" d="M 85.741895 -60.220644 
L 85.741895 -20.225455 
L 92.35727 -20.225455 
L 98.972646 -20.225455 
L 105.588021 -20.225455 
L 112.203396 -20.225455 
L 118.818772 -20.225455 
L 125.434147 -20.225455 
L 132.049523 -20.225455 
L 138.664898 -20.225455 
L 145.280273 -20.225455 
L 151.895649 -20.225455 
L 158.511024 -20.225455 
L 165.1264 -20.225455 
L 171.741775 -20.225455 
L 178.35715 -20.225455 
L 184.972526 -20.225455 
L 191.587901 -20.225455 
L 198.203276 -20.225455 
L 204.818652 -20.225455 
L 211.434027 -20.225455 
L 218.049403 -20.225455 
L 224.664778 -20.225455 
L 231.280153 -20.225455 
L 237.895529 -20.225455 
L 244.510904 -20.225455 
L 251.12628 -20.225455 
L 257.741655 -20.225455 
L 264.35703 -20.225455 
L 270.972406 -20.225455 
L 277.587781 -20.225455 
L 284.203156 -20.225455 
L 290.818532 -20.225455 
L 297.433907 -20.225455 
L 304.049283 -20.225455 
L 310.664658 -20.225455 
L 317.280033 -20.225455 
L 323.895409 -20.225455 
L 330.510784 -20.225455 
L 337.126159 -20.225455 
L 343.741535 -20.225455 
L 350.35691 -20.225455 
L 356.972286 -20.225455 
L 363.587661 -20.225455 
L 370.203036 -20.225455 
L 376.818412 -20.225455 
L 383.433787 -20.225455 
L 390.049163 -20.225455 
L 396.664538 -20.225455 
L 403.279913 -20.225455 
L 409.895289 -20.225455 
L 416.510664 -20.225455 
L 423.126039 -20.225455 
L 429.741415 -20.225455 
L 436.35679 -20.225455 
L 442.972166 -20.225455 
L 449.587541 -20.225455 
L 456.202916 -20.225455 
L 462.818292 -20.225455 
L 469.433667 -20.225455 
L 476.049043 -20.225455 
L 482.664418 -20.225455 
L 489.279793 -20.225455 
L 489.279793 -60.220644 
L 489.279793 -60.220644 
L 482.664418 -60.220644 
L 476.049043 -60.220644 
L 469.433667 -60.220644 
L 462.818292 -60.220644 
L 456.202916 -60.220644 
L 449.587541 -60.220644 
L 442.972166 -60.220644 
L 436.35679 -60.220644 
L 429.741415 -60.220644 
L 423.126039 -60.220644 
L 416.510664 -60.220644 
L 409.895289 -60.220644 
L 403.279913 -60.220644 
L 396.664538 -60.220644 
L 390.049163 -60.220644 
L 383.433787 -60.220644 
L 376.818412 -60.220644 
L 370.203036 -60.220644 
L 363.587661 -60.220644 
L 356.972286 -60.220644 
L 350.35691 -60.220644 
L 343.741535 -60.220644 
L 337.126159 -60.220644 
L 330.510784 -60.220644 
L 323.895409 -60.220644 
L 317.280033 -60.220644 
L 310.664658 -60.220644 
L 304.049283 -60.220644 
L 297.433907 -60.220644 
L 290.818532 -60.220644 
L 284.203156 -60.220644 
L 277.587781 -60.220644 
L 270.972406 -60.220644 
L 264.35703 -60.220644 
L 257.741655 -60.220644 
L 251.12628 -60.220644 
L 244.510904 -60.220644 
L 237.895529 -60.220644 
L 231.280153 -60.220644 
L 224.664778 -60.220644 
L 218.049403 -60.220644 
L 211.434027 -60.220644 
L 204.818652 -60.220644 
L 198.203276 -60.220644 
L 191.587901 -60.220644 
L 184.972526 -60.220644 
L 178.35715 -60.220644 
L 171.741775 -60.220644 
L 165.1264 -60.220644 
L 158.511024 -60.220644 
L 151.895649 -60.220644 
L 145.280273 -60.220644 
L 138.664898 -60.220644 
L 132.049523 -60.220644 
L 125.434147 -60.220644 
L 118.818772 -60.220644 
L 112.203396 -60.220644 
L 105.588021 -60.220644 
L 98.972646 -60.220644 
L 92.35727 -60.220644 
L 85.741895 -60.220644 
z
" style="stroke: #db5f57; stroke-opacity: 0.65"/>
    </defs>
    <g clip-path="url(#pe9aba647f5)">
     <use xlink:href="#m9ced77c2c7" x="0" y="372.96" style="fill: #db5f57; fill-opacity: 0.65; stroke: #db5f57; stroke-opacity: 0.65"/>
    </g>
   </g>
   <g id="PolyCollection_7">
    <defs>
     <path id="m319c8a1da2" d="M 85.741895 -102.365393 
L 85.741895 -60.220644 
L 92.35727 -60.220644 
L 98.972646 -60.220644 
L 105.588021 -60.220644 
L 112.203396 -60.220644 
L 118.818772 -60.220644 
L 125.434147 -60.220644 
L 132.049523 -60.220644 
L 138.664898 -60.220644 
L 145.280273 -60.220644 
L 151.895649 -60.220644 
L 158.511024 -60.220644 
L 165.1264 -60.583217 
L 171.741775 -61.308363 
L 178.35715 -62.396082 
L 184.972526 -63.846374 
L 191.587901 -65.659239 
L 198.203276 -67.834677 
L 204.818652 -70.372688 
L 211.434027 -73.273273 
L 218.049403 -76.53643 
L 224.664778 -80.16216 
L 231.280153 -84.150463 
L 237.895529 -88.50134 
L 244.510904 -93.214789 
L 251.12628 -98.290811 
L 257.741655 -103.729407 
L 264.35703 -109.530575 
L 270.972406 -115.694317 
L 277.587781 -122.220631 
L 284.203156 -129.109519 
L 290.818532 -136.360979 
L 297.433907 -143.249867 
L 304.049283 -149.776181 
L 310.664658 -155.939922 
L 317.280033 -161.741091 
L 323.895409 -167.179686 
L 330.510784 -172.255709 
L 337.126159 -176.969158 
L 343.741535 -181.320034 
L 350.35691 -185.308338 
L 356.972286 -188.934068 
L 363.587661 -192.197225 
L 370.203036 -195.097809 
L 376.818412 -197.63582 
L 383.433787 -199.811259 
L 390.049163 -201.624124 
L 396.664538 -203.074416 
L 403.279913 -204.162135 
L 409.895289 -204.887281 
L 416.510664 -205.249854 
L 423.126039 -205.249854 
L 429.741415 -205.249854 
L 436.35679 -205.249854 
L 442.972166 -205.249854 
L 449.587541 -205.249854 
L 456.202916 -205.249854 
L 462.818292 -205.249854 
L 469.433667 -205.249854 
L 476.049043 -205.249854 
L 482.664418 -205.249854 
L 489.279793 -205.249854 
L 489.279793 -247.394603 
L 489.279793 -247.394603 
L 482.664418 -247.394603 
L 476.049043 -247.394603 
L 469.433667 -247.394603 
L 462.818292 -247.394603 
L 456.202916 -247.394603 
L 449.587541 -247.394603 
L 442.972166 -247.394603 
L 436.35679 -247.394603 
L 429.741415 -247.394603 
L 423.126039 -247.394603 
L 416.510664 -247.394603 
L 409.895289 -247.03203 
L 403.279913 -246.306884 
L 396.664538 -245.219165 
L 390.049163 -243.768873 
L 383.433787 -241.956008 
L 376.818412 -239.780569 
L 370.203036 -237.242558 
L 363.587661 -234.341974 
L 356.972286 -231.078817 
L 350.35691 -227.453087 
L 343.741535 -223.464783 
L 337.126159 -219.113907 
L 330.510784 -214.400458 
L 323.895409 -209.324435 
L 317.280033 -203.88584 
L 310.664658 -198.084671 
L 304.049283 -191.92093 
L 297.433907 -185.394616 
L 290.818532 -178.505728 
L 284.203156 -171.254268 
L 277.587781 -164.36538 
L 270.972406 -157.839066 
L 264.35703 -151.675324 
L 257.741655 -145.874156 
L 251.12628 -140.43556 
L 244.510904 -135.359538 
L 237.895529 -130.646089 
L 231.280153 -126.295212 
L 224.664778 -122.306909 
L 218.049403 -118.681179 
L 211.434027 -115.418022 
L 204.818652 -112.517437 
L 198.203276 -109.979426 
L 191.587901 -107.803988 
L 184.972526 -105.991123 
L 178.35715 -104.540831 
L 171.741775 -103.453112 
L 165.1264 -102.727966 
L 158.511024 -102.365393 
L 151.895649 -102.365393 
L 145.280273 -102.365393 
L 138.664898 -102.365393 
L 132.049523 -102.365393 
L 125.434147 -102.365393 
L 118.818772 -102.365393 
L 112.203396 -102.365393 
L 105.588021 -102.365393 
L 98.972646 -102.365393 
L 92.35727 -102.365393 
L 85.741895 -102.365393 
z
" style="stroke: #db5f57; stroke-opacity: 0.65"/>
    </defs>
    <g clip-path="url(#pe9aba647f5)">
     <use xlink:href="#m319c8a1da2" x="0" y="372.96" style="fill: #db5f57; fill-opacity: 0.65; stroke: #db5f57; stroke-opacity: 0.65"/>
    </g>
   </g>
   <g id="PolyCollection_8">
    <defs>
     <path id="m17f0ab3f97" d="M 85.741895 -163.82582 
L 85.741895 -130.074484 
L 92.35727 -130.074484 
L 98.972646 -130.074484 
L 105.588021 -130.074484 
L 112.203396 -130.074484 
L 118.818772 -130.074484 
L 125.434147 -130.074484 
L 132.049523 -130.074484 
L 138.664898 -130.074484 
L 145.280273 -130.074484 
L 151.895649 -130.074484 
L 158.511024 -130.074484 
L 165.1264 -129.899849 
L 171.741775 -129.55058 
L 178.35715 -129.026676 
L 184.972526 -128.328138 
L 191.587901 -127.454965 
L 198.203276 -126.407157 
L 204.818652 -125.184715 
L 211.434027 -123.787638 
L 218.049403 -122.215927 
L 224.664778 -120.469581 
L 231.280153 -118.5486 
L 237.895529 -116.452985 
L 244.510904 -114.182735 
L 251.12628 -111.737851 
L 257.741655 -109.118332 
L 264.35703 -106.324178 
L 270.972406 -103.35539 
L 277.587781 -100.211967 
L 284.203156 -96.89391 
L 290.818532 -93.401218 
L 297.433907 -90.08316 
L 304.049283 -86.939737 
L 310.664658 -83.970949 
L 317.280033 -81.176796 
L 323.895409 -78.557277 
L 330.510784 -76.112392 
L 337.126159 -73.842142 
L 343.741535 -71.746527 
L 350.35691 -69.825547 
L 356.972286 -68.079201 
L 363.587661 -66.507489 
L 370.203036 -65.110412 
L 376.818412 -63.88797 
L 383.433787 -62.840163 
L 390.049163 -61.96699 
L 396.664538 -61.268451 
L 403.279913 -60.744547 
L 409.895289 -60.395278 
L 416.510664 -60.220644 
L 423.126039 -60.220644 
L 429.741415 -60.220644 
L 436.35679 -60.220644 
L 442.972166 -60.220644 
L 449.587541 -60.220644 
L 456.202916 -60.220644 
L 462.818292 -60.220644 
L 469.433667 -60.220644 
L 476.049043 -60.220644 
L 482.664418 -60.220644 
L 489.279793 -60.220644 
L 489.279793 -93.97198 
L 489.279793 -93.97198 
L 482.664418 -93.97198 
L 476.049043 -93.97198 
L 469.433667 -93.97198 
L 462.818292 -93.97198 
L 456.202916 -93.97198 
L 449.587541 -93.97198 
L 442.972166 -93.97198 
L 436.35679 -93.97198 
L 429.741415 -93.97198 
L 423.126039 -93.97198 
L 416.510664 -93.97198 
L 409.895289 -94.146614 
L 403.279913 -94.495884 
L 396.664538 -95.019787 
L 390.049163 -95.718326 
L 383.433787 -96.591499 
L 376.818412 -97.639306 
L 370.203036 -98.861749 
L 363.587661 -100.258825 
L 356.972286 -101.830537 
L 350.35691 -103.576883 
L 343.741535 -105.497863 
L 337.126159 -107.593479 
L 330.510784 -109.863728 
L 323.895409 -112.308613 
L 317.280033 -114.928132 
L 310.664658 -117.722285 
L 304.049283 -120.691074 
L 297.433907 -123.834496 
L 290.818532 -127.152554 
L 284.203156 -130.645246 
L 277.587781 -133.963303 
L 270.972406 -137.106726 
L 264.35703 -140.075514 
L 257.741655 -142.869668 
L 251.12628 -145.489187 
L 244.510904 -147.934071 
L 237.895529 -150.204321 
L 231.280153 -152.299936 
L 224.664778 -154.220917 
L 218.049403 -155.967263 
L 211.434027 -157.538974 
L 204.818652 -158.936051 
L 198.203276 -160.158493 
L 191.587901 -161.206301 
L 184.972526 -162.079474 
L 178.35715 -162.778012 
L 171.741775 -163.301916 
L 165.1264 -163.651185 
L 158.511024 -163.82582 
L 151.895649 -163.82582 
L 145.280273 -163.82582 
L 138.664898 -163.82582 
L 132.049523 -163.82582 
L 125.434147 -163.82582 
L 118.818772 -163.82582 
L 112.203396 -163.82582 
L 105.588021 -163.82582 
L 98.972646 -163.82582 
L 92.35727 -163.82582 
L 85.741895 -163.82582 
z
" style="stroke: #b9db57; stroke-opacity: 0.65"/>
    </defs>
    <g clip-path="url(#pe9aba647f5)">
     <use xlink:href="#m17f0ab3f97" x="0" y="372.96" style="fill: #b9db57; fill-opacity: 0.65; stroke: #b9db57; stroke-opacity: 0.65"/>
    </g>
   </g>
   <g id="PolyCollection_9">
    <defs>
     <path id="m3589f91193" d="M 85.741895 -190.860948 
L 85.741895 -163.82582 
L 92.35727 -163.82582 
L 98.972646 -163.82582 
L 105.588021 -163.82582 
L 112.203396 -163.82582 
L 118.818772 -163.82582 
L 125.434147 -163.82582 
L 132.049523 -163.82582 
L 138.664898 -163.82582 
L 145.280273 -163.82582 
L 151.895649 -163.82582 
L 158.511024 -163.82582 
L 165.1264 -164.034742 
L 171.741775 -164.452586 
L 178.35715 -165.079352 
L 184.972526 -165.915039 
L 191.587901 -166.959649 
L 198.203276 -168.213181 
L 204.818652 -169.675635 
L 211.434027 -171.34701 
L 218.049403 -173.227308 
L 224.664778 -175.316528 
L 231.280153 -177.614669 
L 237.895529 -180.121733 
L 244.510904 -182.837718 
L 251.12628 -185.762625 
L 257.741655 -188.896455 
L 264.35703 -192.239206 
L 270.972406 -195.790879 
L 277.587781 -199.551475 
L 284.203156 -203.520992 
L 290.818532 -207.699431 
L 297.433907 -211.668948 
L 304.049283 -215.429543 
L 310.664658 -218.981217 
L 317.280033 -222.323968 
L 323.895409 -225.457797 
L 330.510784 -228.382705 
L 337.126159 -231.09869 
L 343.741535 -233.605754 
L 350.35691 -235.903895 
L 356.972286 -237.993115 
L 363.587661 -239.873413 
L 370.203036 -241.544788 
L 376.818412 -243.007242 
L 383.433787 -244.260774 
L 390.049163 -245.305383 
L 396.664538 -246.141071 
L 403.279913 -246.767837 
L 409.895289 -247.185681 
L 416.510664 -247.394603 
L 423.126039 -247.394603 
L 429.741415 -247.394603 
L 436.35679 -247.394603 
L 442.972166 -247.394603 
L 449.587541 -247.394603 
L 456.202916 -247.394603 
L 462.818292 -247.394603 
L 469.433667 -247.394603 
L 476.049043 -247.394603 
L 482.664418 -247.394603 
L 489.279793 -247.394603 
L 489.279793 -274.429731 
L 489.279793 -274.429731 
L 482.664418 -274.429731 
L 476.049043 -274.429731 
L 469.433667 -274.429731 
L 462.818292 -274.429731 
L 456.202916 -274.429731 
L 449.587541 -274.429731 
L 442.972166 -274.429731 
L 436.35679 -274.429731 
L 429.741415 -274.429731 
L 423.126039 -274.429731 
L 416.510664 -274.429731 
L 409.895289 -274.220809 
L 403.279913 -273.802965 
L 396.664538 -273.176199 
L 390.049163 -272.340512 
L 383.433787 -271.295902 
L 376.818412 -270.04237 
L 370.203036 -268.579916 
L 363.587661 -266.908541 
L 356.972286 -265.028243 
L 350.35691 -262.939023 
L 343.741535 -260.640882 
L 337.126159 -258.133818 
L 330.510784 -255.417833 
L 323.895409 -252.492926 
L 317.280033 -249.359096 
L 310.664658 -246.016345 
L 304.049283 -242.464672 
L 297.433907 -238.704076 
L 290.818532 -234.734559 
L 284.203156 -230.55612 
L 277.587781 -226.586603 
L 270.972406 -222.826008 
L 264.35703 -219.274334 
L 257.741655 -215.931583 
L 251.12628 -212.797754 
L 244.510904 -209.872846 
L 237.895529 -207.156861 
L 231.280153 -204.649797 
L 224.664778 -202.351656 
L 218.049403 -200.262436 
L 211.434027 -198.382138 
L 204.818652 -196.710763 
L 198.203276 -195.248309 
L 191.587901 -193.994777 
L 184.972526 -192.950168 
L 178.35715 -192.11448 
L 171.741775 -191.487714 
L 165.1264 -191.06987 
L 158.511024 -190.860948 
L 151.895649 -190.860948 
L 145.280273 -190.860948 
L 138.664898 -190.860948 
L 132.049523 -190.860948 
L 125.434147 -190.860948 
L 118.818772 -190.860948 
L 112.203396 -190.860948 
L 105.588021 -190.860948 
L 98.972646 -190.860948 
L 92.35727 -190.860948 
L 85.741895 -190.860948 
z
" style="stroke: #b9db57; stroke-opacity: 0.65"/>
    </defs>
    <g clip-path="url(#pe9aba647f5)">
     <use xlink:href="#m3589f91193" x="0" y="372.96" style="fill: #b9db57; fill-opacity: 0.65; stroke: #b9db57; stroke-opacity: 0.65"/>
    </g>
   </g>
   <g id="PolyCollection_10">
    <defs>
     <path id="md5904a95c5" d="M 85.741895 -302.138822 
L 85.741895 -218.570039 
L 92.35727 -218.570039 
L 98.972646 -218.570039 
L 105.588021 -218.570039 
L 112.203396 -218.570039 
L 118.818772 -218.570039 
L 125.434147 -218.570039 
L 132.049523 -218.570039 
L 138.664898 -218.570039 
L 145.280273 -218.570039 
L 151.895649 -218.570039 
L 158.511024 -218.570039 
L 165.1264 -218.258544 
L 171.741775 -217.635553 
L 178.35715 -216.701068 
L 184.972526 -215.455087 
L 191.587901 -213.897612 
L 198.203276 -212.028641 
L 204.818652 -209.848175 
L 211.434027 -207.356214 
L 218.049403 -204.552757 
L 224.664778 -201.437806 
L 231.280153 -198.011359 
L 237.895529 -194.273417 
L 244.510904 -190.22398 
L 251.12628 -185.863048 
L 257.741655 -181.190621 
L 264.35703 -176.206699 
L 270.972406 -170.911281 
L 277.587781 -165.304369 
L 284.203156 -159.385961 
L 290.818532 -153.156058 
L 297.433907 -147.23765 
L 304.049283 -141.630737 
L 310.664658 -136.33532 
L 317.280033 -131.351398 
L 323.895409 -126.67897 
L 330.510784 -122.318038 
L 337.126159 -118.268601 
L 343.741535 -114.53066 
L 350.35691 -111.104213 
L 356.972286 -107.989262 
L 363.587661 -105.185805 
L 370.203036 -102.693844 
L 376.818412 -100.513378 
L 383.433787 -98.644407 
L 390.049163 -97.086931 
L 396.664538 -95.840951 
L 403.279913 -94.906465 
L 409.895289 -94.283475 
L 416.510664 -93.97198 
L 423.126039 -93.97198 
L 429.741415 -93.97198 
L 436.35679 -93.97198 
L 442.972166 -93.97198 
L 449.587541 -93.97198 
L 456.202916 -93.97198 
L 462.818292 -93.97198 
L 469.433667 -93.97198 
L 476.049043 -93.97198 
L 482.664418 -93.97198 
L 489.279793 -93.97198 
L 489.279793 -177.540763 
L 489.279793 -177.540763 
L 482.664418 -177.540763 
L 476.049043 -177.540763 
L 469.433667 -177.540763 
L 462.818292 -177.540763 
L 456.202916 -177.540763 
L 449.587541 -177.540763 
L 442.972166 -177.540763 
L 436.35679 -177.540763 
L 429.741415 -177.540763 
L 423.126039 -177.540763 
L 416.510664 -177.540763 
L 409.895289 -177.852258 
L 403.279913 -178.475249 
L 396.664538 -179.409734 
L 390.049163 -180.655715 
L 383.433787 -182.21319 
L 376.818412 -184.082161 
L 370.203036 -186.262627 
L 363.587661 -188.754588 
L 356.972286 -191.558045 
L 350.35691 -194.672996 
L 343.741535 -198.099443 
L 337.126159 -201.837385 
L 330.510784 -205.886821 
L 323.895409 -210.247754 
L 317.280033 -214.920181 
L 310.664658 -219.904103 
L 304.049283 -225.199521 
L 297.433907 -230.806433 
L 290.818532 -236.724841 
L 284.203156 -242.954744 
L 277.587781 -248.873152 
L 270.972406 -254.480065 
L 264.35703 -259.775482 
L 257.741655 -264.759404 
L 251.12628 -269.431832 
L 244.510904 -273.792764 
L 237.895529 -277.842201 
L 231.280153 -281.580142 
L 224.664778 -285.006589 
L 218.049403 -288.12154 
L 211.434027 -290.924997 
L 204.818652 -293.416958 
L 198.203276 -295.597424 
L 191.587901 -297.466395 
L 184.972526 -299.023871 
L 178.35715 -300.269851 
L 171.741775 -301.204337 
L 165.1264 -301.827327 
L 158.511024 -302.138822 
L 151.895649 -302.138822 
L 145.280273 -302.138822 
L 138.664898 -302.138822 
L 132.049523 -302.138822 
L 125.434147 -302.138822 
L 118.818772 -302.138822 
L 112.203396 -302.138822 
L 105.588021 -302.138822 
L 98.972646 -302.138822 
L 92.35727 -302.138822 
L 85.741895 -302.138822 
z
" style="stroke: #57db94; stroke-opacity: 0.65"/>
    </defs>
    <g clip-path="url(#pe9aba647f5)">
     <use xlink:href="#md5904a95c5" x="0" y="372.96" style="fill: #57db94; fill-opacity: 0.65; stroke: #57db94; stroke-opacity: 0.65"/>
    </g>
   </g>
   <g id="PolyCollection_11">
    <defs>
     <path id="m67beea5228" d="M 85.741895 -352.734545 
L 85.741895 -302.138822 
L 92.35727 -302.138822 
L 98.972646 -302.138822 
L 105.588021 -302.138822 
L 112.203396 -302.138822 
L 118.818772 -302.138822 
L 125.434147 -302.138822 
L 132.049523 -302.138822 
L 138.664898 -302.138822 
L 145.280273 -302.138822 
L 151.895649 -302.138822 
L 158.511024 -302.138822 
L 165.1264 -302.069549 
L 171.741775 -301.931004 
L 178.35715 -301.723186 
L 184.972526 -301.446095 
L 191.587901 -301.099731 
L 198.203276 -300.684095 
L 204.818652 -300.199186 
L 211.434027 -299.645004 
L 218.049403 -299.021549 
L 224.664778 -298.328822 
L 231.280153 -297.566822 
L 237.895529 -296.735549 
L 244.510904 -295.835004 
L 251.12628 -294.865186 
L 257.741655 -293.826095 
L 264.35703 -292.717731 
L 270.972406 -291.540095 
L 277.587781 -290.293186 
L 284.203156 -288.977004 
L 290.818532 -287.591549 
L 297.433907 -286.275368 
L 304.049283 -285.028458 
L 310.664658 -283.850822 
L 317.280033 -282.742458 
L 323.895409 -281.703368 
L 330.510784 -280.733549 
L 337.126159 -279.833004 
L 343.741535 -279.001731 
L 350.35691 -278.239731 
L 356.972286 -277.547004 
L 363.587661 -276.923549 
L 370.203036 -276.369368 
L 376.818412 -275.884458 
L 383.433787 -275.468822 
L 390.049163 -275.122458 
L 396.664538 -274.845368 
L 403.279913 -274.637549 
L 409.895289 -274.499004 
L 416.510664 -274.429731 
L 423.126039 -274.429731 
L 429.741415 -274.429731 
L 436.35679 -274.429731 
L 442.972166 -274.429731 
L 449.587541 -274.429731 
L 456.202916 -274.429731 
L 462.818292 -274.429731 
L 469.433667 -274.429731 
L 476.049043 -274.429731 
L 482.664418 -274.429731 
L 489.279793 -274.429731 
L 489.279793 -325.025455 
L 489.279793 -325.025455 
L 482.664418 -325.025455 
L 476.049043 -325.025455 
L 469.433667 -325.025455 
L 462.818292 -325.025455 
L 456.202916 -325.025455 
L 449.587541 -325.025455 
L 442.972166 -325.025455 
L 436.35679 -325.025455 
L 429.741415 -325.025455 
L 423.126039 -325.025455 
L 416.510664 -325.025455 
L 409.895289 -325.094727 
L 403.279913 -325.233273 
L 396.664538 -325.441091 
L 390.049163 -325.718182 
L 383.433787 -326.064545 
L 376.818412 -326.480182 
L 370.203036 -326.965091 
L 363.587661 -327.519273 
L 356.972286 -328.142727 
L 350.35691 -328.835455 
L 343.741535 -329.597455 
L 337.126159 -330.428727 
L 330.510784 -331.329273 
L 323.895409 -332.299091 
L 317.280033 -333.338182 
L 310.664658 -334.446545 
L 304.049283 -335.624182 
L 297.433907 -336.871091 
L 290.818532 -338.187273 
L 284.203156 -339.572727 
L 277.587781 -340.888909 
L 270.972406 -342.135818 
L 264.35703 -343.313455 
L 257.741655 -344.421818 
L 251.12628 -345.460909 
L 244.510904 -346.430727 
L 237.895529 -347.331273 
L 231.280153 -348.162545 
L 224.664778 -348.924545 
L 218.049403 -349.617273 
L 211.434027 -350.240727 
L 204.818652 -350.794909 
L 198.203276 -351.279818 
L 191.587901 -351.695455 
L 184.972526 -352.041818 
L 178.35715 -352.318909 
L 171.741775 -352.526727 
L 165.1264 -352.665273 
L 158.511024 -352.734545 
L 151.895649 -352.734545 
L 145.280273 -352.734545 
L 138.664898 -352.734545 
L 132.049523 -352.734545 
L 125.434147 -352.734545 
L 118.818772 -352.734545 
L 112.203396 -352.734545 
L 105.588021 -352.734545 
L 98.972646 -352.734545 
L 92.35727 -352.734545 
L 85.741895 -352.734545 
z
" style="stroke: #57db94; stroke-opacity: 0.65"/>
    </defs>
    <g clip-path="url(#pe9aba647f5)">
     <use xlink:href="#m67beea5228" x="0" y="372.96" style="fill: #57db94; fill-opacity: 0.65; stroke: #57db94; stroke-opacity: 0.65"/>
    </g>
   </g>
   <g id="text_1">
    <!-- docked_bike -->
    <g transform="translate(4.250625 314.536139) scale(0.12 -0.12)">
     <defs>
      <path id="TimesNewRomanPSMT-64" d="M 2222 322 
Q 2013 103 1813 7 
Q 1613 -88 1381 -88 
Q 913 -88 563 304 
Q 213 697 213 1313 
Q 213 1928 600 2439 
Q 988 2950 1597 2950 
Q 1975 2950 2222 2709 
L 2222 3238 
Q 2222 3728 2198 3840 
Q 2175 3953 2125 3993 
Q 2075 4034 2000 4034 
Q 1919 4034 1784 3984 
L 1744 4094 
L 2597 4444 
L 2738 4444 
L 2738 1134 
Q 2738 631 2761 520 
Q 2784 409 2836 365 
Q 2888 322 2956 322 
Q 3041 322 3181 375 
L 3216 266 
L 2366 -88 
L 2222 -88 
L 2222 322 
z
M 2222 541 
L 2222 2016 
Q 2203 2228 2109 2403 
Q 2016 2578 1861 2667 
Q 1706 2756 1559 2756 
Q 1284 2756 1069 2509 
Q 784 2184 784 1559 
Q 784 928 1059 592 
Q 1334 256 1672 256 
Q 1956 256 2222 541 
z
" transform="scale(0.015625)"/>
      <path id="TimesNewRomanPSMT-6f" d="M 1600 2947 
Q 2250 2947 2644 2453 
Q 2978 2031 2978 1484 
Q 2978 1100 2793 706 
Q 2609 313 2286 112 
Q 1963 -88 1566 -88 
Q 919 -88 538 428 
Q 216 863 216 1403 
Q 216 1797 411 2186 
Q 606 2575 925 2761 
Q 1244 2947 1600 2947 
z
M 1503 2744 
Q 1338 2744 1170 2645 
Q 1003 2547 900 2300 
Q 797 2053 797 1666 
Q 797 1041 1045 587 
Q 1294 134 1700 134 
Q 2003 134 2200 384 
Q 2397 634 2397 1244 
Q 2397 2006 2069 2444 
Q 1847 2744 1503 2744 
z
" transform="scale(0.015625)"/>
      <path id="TimesNewRomanPSMT-63" d="M 2631 1088 
Q 2516 522 2178 217 
Q 1841 -88 1431 -88 
Q 944 -88 581 321 
Q 219 731 219 1428 
Q 219 2103 620 2525 
Q 1022 2947 1584 2947 
Q 2006 2947 2278 2723 
Q 2550 2500 2550 2259 
Q 2550 2141 2473 2067 
Q 2397 1994 2259 1994 
Q 2075 1994 1981 2113 
Q 1928 2178 1911 2362 
Q 1894 2547 1784 2644 
Q 1675 2738 1481 2738 
Q 1169 2738 978 2506 
Q 725 2200 725 1697 
Q 725 1184 976 792 
Q 1228 400 1656 400 
Q 1963 400 2206 609 
Q 2378 753 2541 1131 
L 2631 1088 
z
" transform="scale(0.015625)"/>
      <path id="TimesNewRomanPSMT-6b" d="M 1047 4444 
L 1047 1597 
L 1775 2259 
Q 2006 2472 2044 2528 
Q 2069 2566 2069 2603 
Q 2069 2666 2017 2711 
Q 1966 2756 1847 2763 
L 1847 2863 
L 3091 2863 
L 3091 2763 
Q 2834 2756 2664 2684 
Q 2494 2613 2291 2428 
L 1556 1750 
L 2291 822 
Q 2597 438 2703 334 
Q 2853 188 2966 144 
Q 3044 113 3238 113 
L 3238 0 
L 1847 0 
L 1847 113 
Q 1966 116 2008 148 
Q 2050 181 2050 241 
Q 2050 313 1925 472 
L 1047 1594 
L 1047 644 
Q 1047 366 1086 278 
Q 1125 191 1197 153 
Q 1269 116 1509 113 
L 1509 0 
L 53 0 
L 53 113 
Q 272 113 381 166 
Q 447 200 481 272 
Q 528 375 528 628 
L 528 3234 
Q 528 3731 506 3842 
Q 484 3953 434 3995 
Q 384 4038 303 4038 
Q 238 4038 106 3984 
L 53 4094 
L 903 4444 
L 1047 4444 
z
" transform="scale(0.015625)"/>
      <path id="TimesNewRomanPSMT-65" d="M 681 1784 
Q 678 1147 991 784 
Q 1303 422 1725 422 
Q 2006 422 2214 576 
Q 2422 731 2563 1106 
L 2659 1044 
Q 2594 616 2278 264 
Q 1963 -88 1488 -88 
Q 972 -88 605 314 
Q 238 716 238 1394 
Q 238 2128 614 2539 
Q 991 2950 1559 2950 
Q 2041 2950 2350 2633 
Q 2659 2316 2659 1784 
L 681 1784 
z
M 681 1966 
L 2006 1966 
Q 1991 2241 1941 2353 
Q 1863 2528 1708 2628 
Q 1553 2728 1384 2728 
Q 1125 2728 920 2526 
Q 716 2325 681 1966 
z
" transform="scale(0.015625)"/>
      <path id="TimesNewRomanPSMT-5f" d="M 3256 -1381 
L -53 -1381 
L -53 -1119 
L 3256 -1119 
L 3256 -1381 
z
" transform="scale(0.015625)"/>
      <path id="TimesNewRomanPSMT-62" d="M 984 2369 
Q 1400 2947 1881 2947 
Q 2322 2947 2650 2570 
Q 2978 2194 2978 1541 
Q 2978 778 2472 313 
Q 2038 -88 1503 -88 
Q 1253 -88 995 3 
Q 738 94 469 275 
L 469 3241 
Q 469 3728 445 3840 
Q 422 3953 372 3993 
Q 322 4034 247 4034 
Q 159 4034 28 3984 
L -16 4094 
L 844 4444 
L 984 4444 
L 984 2369 
z
M 984 2169 
L 984 456 
Q 1144 300 1314 220 
Q 1484 141 1663 141 
Q 1947 141 2192 453 
Q 2438 766 2438 1363 
Q 2438 1913 2192 2208 
Q 1947 2503 1634 2503 
Q 1469 2503 1303 2419 
Q 1178 2356 984 2169 
z
" transform="scale(0.015625)"/>
      <path id="TimesNewRomanPSMT-69" d="M 928 4444 
Q 1059 4444 1151 4351 
Q 1244 4259 1244 4128 
Q 1244 3997 1151 3903 
Q 1059 3809 928 3809 
Q 797 3809 703 3903 
Q 609 3997 609 4128 
Q 609 4259 701 4351 
Q 794 4444 928 4444 
z
M 1188 2947 
L 1188 647 
Q 1188 378 1227 289 
Q 1266 200 1342 156 
Q 1419 113 1622 113 
L 1622 0 
L 231 0 
L 231 113 
Q 441 113 512 153 
Q 584 194 626 287 
Q 669 381 669 647 
L 669 1750 
Q 669 2216 641 2353 
Q 619 2453 572 2492 
Q 525 2531 444 2531 
Q 356 2531 231 2484 
L 188 2597 
L 1050 2947 
L 1188 2947 
z
" transform="scale(0.015625)"/>
     </defs>
     <use xlink:href="#TimesNewRomanPSMT-64"/>
     <use xlink:href="#TimesNewRomanPSMT-6f" x="50"/>
     <use xlink:href="#TimesNewRomanPSMT-63" x="100"/>
     <use xlink:href="#TimesNewRomanPSMT-6b" x="144.384766"/>
     <use xlink:href="#TimesNewRomanPSMT-65" x="194.384766"/>
     <use xlink:href="#TimesNewRomanPSMT-64" x="238.769531"/>
     <use xlink:href="#TimesNewRomanPSMT-5f" x="288.769531"/>
     <use xlink:href="#TimesNewRomanPSMT-62" x="338.769531"/>
     <use xlink:href="#TimesNewRomanPSMT-69" x="388.769531"/>
     <use xlink:href="#TimesNewRomanPSMT-6b" x="416.552734"/>
     <use xlink:href="#TimesNewRomanPSMT-65" x="466.552734"/>
    </g>
   </g>
   <g id="text_2">
    <!-- electric_bike -->
    <g transform="translate(3.6 215.363847) scale(0.12 -0.12)">
     <defs>
      <path id="TimesNewRomanPSMT-6c" d="M 1184 4444 
L 1184 647 
Q 1184 378 1223 290 
Q 1263 203 1344 158 
Q 1425 113 1647 113 
L 1647 0 
L 244 0 
L 244 113 
Q 441 113 512 153 
Q 584 194 625 287 
Q 666 381 666 647 
L 666 3247 
Q 666 3731 644 3842 
Q 622 3953 573 3993 
Q 525 4034 450 4034 
Q 369 4034 244 3984 
L 191 4094 
L 1044 4444 
L 1184 4444 
z
" transform="scale(0.015625)"/>
      <path id="TimesNewRomanPSMT-74" d="M 1031 3803 
L 1031 2863 
L 1700 2863 
L 1700 2644 
L 1031 2644 
L 1031 788 
Q 1031 509 1111 412 
Q 1191 316 1316 316 
Q 1419 316 1516 380 
Q 1613 444 1666 569 
L 1788 569 
Q 1678 263 1478 108 
Q 1278 -47 1066 -47 
Q 922 -47 784 33 
Q 647 113 581 261 
Q 516 409 516 719 
L 516 2644 
L 63 2644 
L 63 2747 
Q 234 2816 414 2980 
Q 594 3144 734 3369 
Q 806 3488 934 3803 
L 1031 3803 
z
" transform="scale(0.015625)"/>
      <path id="TimesNewRomanPSMT-72" d="M 1038 2947 
L 1038 2303 
Q 1397 2947 1775 2947 
Q 1947 2947 2059 2842 
Q 2172 2738 2172 2600 
Q 2172 2478 2090 2393 
Q 2009 2309 1897 2309 
Q 1788 2309 1652 2417 
Q 1516 2525 1450 2525 
Q 1394 2525 1328 2463 
Q 1188 2334 1038 2041 
L 1038 669 
Q 1038 431 1097 309 
Q 1138 225 1241 169 
Q 1344 113 1538 113 
L 1538 0 
L 72 0 
L 72 113 
Q 291 113 397 181 
Q 475 231 506 341 
Q 522 394 522 644 
L 522 1753 
Q 522 2253 501 2348 
Q 481 2444 426 2487 
Q 372 2531 291 2531 
Q 194 2531 72 2484 
L 41 2597 
L 906 2947 
L 1038 2947 
z
" transform="scale(0.015625)"/>
     </defs>
     <use xlink:href="#TimesNewRomanPSMT-65"/>
     <use xlink:href="#TimesNewRomanPSMT-6c" x="44.384766"/>
     <use xlink:href="#TimesNewRomanPSMT-65" x="72.167969"/>
     <use xlink:href="#TimesNewRomanPSMT-63" x="116.552734"/>
     <use xlink:href="#TimesNewRomanPSMT-74" x="160.9375"/>
     <use xlink:href="#TimesNewRomanPSMT-72" x="188.720703"/>
     <use xlink:href="#TimesNewRomanPSMT-69" x="222.021484"/>
     <use xlink:href="#TimesNewRomanPSMT-63" x="249.804688"/>
     <use xlink:href="#TimesNewRomanPSMT-5f" x="294.189453"/>
     <use xlink:href="#TimesNewRomanPSMT-62" x="344.189453"/>
     <use xlink:href="#TimesNewRomanPSMT-69" x="394.189453"/>
     <use xlink:href="#TimesNewRomanPSMT-6b" x="421.972656"/>
     <use xlink:href="#TimesNewRomanPSMT-65" x="471.972656"/>
    </g>
   </g>
   <g id="text_3">
    <!-- classic_bike -->
    <g transform="translate(6.915 90.17927) scale(0.12 -0.12)">
     <defs>
      <path id="TimesNewRomanPSMT-61" d="M 1822 413 
Q 1381 72 1269 19 
Q 1100 -59 909 -59 
Q 613 -59 420 144 
Q 228 347 228 678 
Q 228 888 322 1041 
Q 450 1253 767 1440 
Q 1084 1628 1822 1897 
L 1822 2009 
Q 1822 2438 1686 2597 
Q 1550 2756 1291 2756 
Q 1094 2756 978 2650 
Q 859 2544 859 2406 
L 866 2225 
Q 866 2081 792 2003 
Q 719 1925 600 1925 
Q 484 1925 411 2006 
Q 338 2088 338 2228 
Q 338 2497 613 2722 
Q 888 2947 1384 2947 
Q 1766 2947 2009 2819 
Q 2194 2722 2281 2516 
Q 2338 2381 2338 1966 
L 2338 994 
Q 2338 584 2353 492 
Q 2369 400 2405 369 
Q 2441 338 2488 338 
Q 2538 338 2575 359 
Q 2641 400 2828 588 
L 2828 413 
Q 2478 -56 2159 -56 
Q 2006 -56 1915 50 
Q 1825 156 1822 413 
z
M 1822 616 
L 1822 1706 
Q 1350 1519 1213 1441 
Q 966 1303 859 1153 
Q 753 1003 753 825 
Q 753 600 887 451 
Q 1022 303 1197 303 
Q 1434 303 1822 616 
z
" transform="scale(0.015625)"/>
      <path id="TimesNewRomanPSMT-73" d="M 2050 2947 
L 2050 1972 
L 1947 1972 
Q 1828 2431 1642 2597 
Q 1456 2763 1169 2763 
Q 950 2763 815 2647 
Q 681 2531 681 2391 
Q 681 2216 781 2091 
Q 878 1963 1175 1819 
L 1631 1597 
Q 2266 1288 2266 781 
Q 2266 391 1970 151 
Q 1675 -88 1309 -88 
Q 1047 -88 709 6 
Q 606 38 541 38 
Q 469 38 428 -44 
L 325 -44 
L 325 978 
L 428 978 
Q 516 541 762 319 
Q 1009 97 1316 97 
Q 1531 97 1667 223 
Q 1803 350 1803 528 
Q 1803 744 1651 891 
Q 1500 1038 1047 1263 
Q 594 1488 453 1669 
Q 313 1847 313 2119 
Q 313 2472 555 2709 
Q 797 2947 1181 2947 
Q 1350 2947 1591 2875 
Q 1750 2828 1803 2828 
Q 1853 2828 1881 2850 
Q 1909 2872 1947 2947 
L 2050 2947 
z
" transform="scale(0.015625)"/>
     </defs>
     <use xlink:href="#TimesNewRomanPSMT-63"/>
     <use xlink:href="#TimesNewRomanPSMT-6c" x="44.384766"/>
     <use xlink:href="#TimesNewRomanPSMT-61" x="72.167969"/>
     <use xlink:href="#TimesNewRomanPSMT-73" x="116.552734"/>
     <use xlink:href="#TimesNewRomanPSMT-73" x="155.46875"/>
     <use xlink:href="#TimesNewRomanPSMT-69" x="194.384766"/>
     <use xlink:href="#TimesNewRomanPSMT-63" x="222.167969"/>
     <use xlink:href="#TimesNewRomanPSMT-5f" x="266.552734"/>
     <use xlink:href="#TimesNewRomanPSMT-62" x="316.552734"/>
     <use xlink:href="#TimesNewRomanPSMT-69" x="366.552734"/>
     <use xlink:href="#TimesNewRomanPSMT-6b" x="394.335938"/>
     <use xlink:href="#TimesNewRomanPSMT-65" x="444.335938"/>
    </g>
   </g>
   <g id="text_4">
    <!-- member -->
    <g transform="translate(509.456688 276.959704) scale(0.12 -0.12)">
     <defs>
      <path id="TimesNewRomanPSMT-6d" d="M 1050 2338 
Q 1363 2650 1419 2697 
Q 1559 2816 1721 2881 
Q 1884 2947 2044 2947 
Q 2313 2947 2506 2790 
Q 2700 2634 2766 2338 
Q 3088 2713 3309 2830 
Q 3531 2947 3766 2947 
Q 3994 2947 4170 2830 
Q 4347 2713 4450 2447 
Q 4519 2266 4519 1878 
L 4519 647 
Q 4519 378 4559 278 
Q 4591 209 4675 161 
Q 4759 113 4950 113 
L 4950 0 
L 3538 0 
L 3538 113 
L 3597 113 
Q 3781 113 3884 184 
Q 3956 234 3988 344 
Q 4000 397 4000 647 
L 4000 1878 
Q 4000 2228 3916 2372 
Q 3794 2572 3525 2572 
Q 3359 2572 3192 2489 
Q 3025 2406 2788 2181 
L 2781 2147 
L 2788 2013 
L 2788 647 
Q 2788 353 2820 281 
Q 2853 209 2943 161 
Q 3034 113 3253 113 
L 3253 0 
L 1806 0 
L 1806 113 
Q 2044 113 2133 169 
Q 2222 225 2256 338 
Q 2272 391 2272 647 
L 2272 1878 
Q 2272 2228 2169 2381 
Q 2031 2581 1784 2581 
Q 1616 2581 1450 2491 
Q 1191 2353 1050 2181 
L 1050 647 
Q 1050 366 1089 281 
Q 1128 197 1204 155 
Q 1281 113 1516 113 
L 1516 0 
L 100 0 
L 100 113 
Q 297 113 375 155 
Q 453 197 493 289 
Q 534 381 534 647 
L 534 1741 
Q 534 2213 506 2350 
Q 484 2453 437 2492 
Q 391 2531 309 2531 
Q 222 2531 100 2484 
L 53 2597 
L 916 2947 
L 1050 2947 
L 1050 2338 
z
" transform="scale(0.015625)"/>
     </defs>
     <use xlink:href="#TimesNewRomanPSMT-6d"/>
     <use xlink:href="#TimesNewRomanPSMT-65" x="77.783203"/>
     <use xlink:href="#TimesNewRomanPSMT-6d" x="122.167969"/>
     <use xlink:href="#TimesNewRomanPSMT-62" x="199.951172"/>
     <use xlink:href="#TimesNewRomanPSMT-65" x="249.951172"/>
     <use xlink:href="#TimesNewRomanPSMT-72" x="294.335938"/>
    </g>
   </g>
   <g id="text_5">
    <!-- casual -->
    <g transform="translate(509.456688 110.705158) scale(0.12 -0.12)">
     <defs>
      <path id="TimesNewRomanPSMT-75" d="M 2709 2863 
L 2709 1128 
Q 2709 631 2732 520 
Q 2756 409 2807 365 
Q 2859 322 2928 322 
Q 3025 322 3147 375 
L 3191 266 
L 2334 -88 
L 2194 -88 
L 2194 519 
Q 1825 119 1631 15 
Q 1438 -88 1222 -88 
Q 981 -88 804 51 
Q 628 191 559 409 
Q 491 628 491 1028 
L 491 2306 
Q 491 2509 447 2587 
Q 403 2666 317 2708 
Q 231 2750 6 2747 
L 6 2863 
L 1009 2863 
L 1009 947 
Q 1009 547 1148 422 
Q 1288 297 1484 297 
Q 1619 297 1789 381 
Q 1959 466 2194 703 
L 2194 2325 
Q 2194 2569 2105 2655 
Q 2016 2741 1734 2747 
L 1734 2863 
L 2709 2863 
z
" transform="scale(0.015625)"/>
     </defs>
     <use xlink:href="#TimesNewRomanPSMT-63"/>
     <use xlink:href="#TimesNewRomanPSMT-61" x="44.384766"/>
     <use xlink:href="#TimesNewRomanPSMT-73" x="88.769531"/>
     <use xlink:href="#TimesNewRomanPSMT-75" x="127.685547"/>
     <use xlink:href="#TimesNewRomanPSMT-61" x="177.685547"/>
     <use xlink:href="#TimesNewRomanPSMT-6c" x="222.070312"/>
    </g>
   </g>
  </g>
 </g>
 <defs>
  <clipPath id="pe9aba647f5">
   <rect x="56.687166" y="3.6" width="461.647356" height="365.76"/>
  </clipPath>
 </defs>
</svg>
